<?xml version="1.0" encoding="utf-8" standalone="no"?>
<!DOCTYPE svg PUBLIC "-//W3C//DTD SVG 1.1//EN"
  "http://www.w3.org/Graphics/SVG/1.1/DTD/svg11.dtd">
<svg xmlns:xlink="http://www.w3.org/1999/xlink" width="703.26pt" height="421.56pt" viewBox="0 0 703.26 421.56" xmlns="http://www.w3.org/2000/svg" version="1.1">
 <metadata>
  <rdf:RDF xmlns:dc="http://purl.org/dc/elements/1.1/" xmlns:cc="http://creativecommons.org/ns#" xmlns:rdf="http://www.w3.org/1999/02/22-rdf-syntax-ns#">
   <cc:Work>
    <dc:type rdf:resource="http://purl.org/dc/dcmitype/StillImage"/>
    <dc:date>2026-08-27T19:23:35.642267</dc:date>
    <dc:format>image/svg+xml</dc:format>
    <dc:creator>
     <cc:Agent>
      <dc:title>Matplotlib v3.10.8, https://matplotlib.org/</dc:title>
     </cc:Agent>
    </dc:creator>
   </cc:Work>
  </rdf:RDF>
 </metadata>
 <defs>
  <style type="text/css">*{stroke-linejoin: round; stroke-linecap: butt}</style>
 </defs>
 <g id="figure_1">
  <g id="patch_1">
   <path d="M 0 421.56 
L 703.26 421.56 
L 703.26 -0 
L 0 -0 
z
" style="fill: #ffffff"/>
  </g>
  <g id="axes_1">
   <g id="patch_2">
    <path d="M 58.68 220.7592 
C 63.1195 220.7592 67.377767 219.707729 70.516968 217.83636 
C 73.656168 215.964991 75.42 213.426515 75.42 210.78 
C 75.42 208.133485 73.656168 205.595009 70.516968 203.72364 
C 67.377767 201.852271 63.1195 200.8008 58.68 200.8008 
C 54.2405 200.8008 49.982233 201.852271 46.843032 203.72364 
C 43.703832 205.595009 41.94 208.133485 41.94 210.78 
C 41.94 213.426515 43.703832 215.964991 46.843032 217.83636 
C 49.982233 219.707729 54.2405 220.7592 58.68 220.7592 
L 58.68 220.7592 
z
" clip-path="url(#p322f9f6f2f)" style="fill: none; stroke: #000000; stroke-width: 1.2; stroke-linejoin: miter"/>
   </g>
   <g id="patch_3">
    <path d="M 205.155 77.724 
C 208.854583 77.724 212.403139 76.847774 215.01914 75.2883 
C 217.63514 73.728826 219.105 71.613429 219.105 69.408 
C 219.105 67.202571 217.63514 65.087174 215.01914 63.5277 
C 212.403139 61.968226 208.854583 61.092 205.155 61.092 
C 201.455417 61.092 197.906861 61.968226 195.29086 63.5277 
C 192.67486 65.087174 191.205 67.202571 191.205 69.408 
C 191.205 71.613429 192.67486 73.728826 195.29086 75.2883 
C 197.906861 76.847774 201.455417 77.724 205.155 77.724 
L 205.155 77.724 
z
" clip-path="url(#p322f9f6f2f)" style="fill: none; stroke: #000000; stroke-linejoin: miter"/>
   </g>
   <g id="patch_4">
    <path d="M 205.155 119.304 
C 208.854583 119.304 212.403139 118.427774 215.01914 116.8683 
C 217.63514 115.308826 219.105 113.193429 219.105 110.988 
C 219.105 108.782571 217.63514 106.667174 215.01914 105.1077 
C 212.403139 103.548226 208.854583 102.672 205.155 102.672 
C 201.455417 102.672 197.906861 103.548226 195.29086 105.1077 
C 192.67486 106.667174 191.205 108.782571 191.205 110.988 
C 191.205 113.193429 192.67486 115.308826 195.29086 116.8683 
C 197.906861 118.427774 201.455417 119.304 205.155 119.304 
L 205.155 119.304 
z
" clip-path="url(#p322f9f6f2f)" style="fill: none; stroke: #000000; stroke-linejoin: miter"/>
   </g>
   <g id="patch_5">
    <path d="M 205.155 160.884 
C 208.854583 160.884 212.403139 160.007774 215.01914 158.4483 
C 217.63514 156.888826 219.105 154.773429 219.105 152.568 
C 219.105 150.362571 217.63514 148.247174 215.01914 146.6877 
C 212.403139 145.128226 208.854583 144.252 205.155 144.252 
C 201.455417 144.252 197.906861 145.128226 195.29086 146.6877 
C 192.67486 148.247174 191.205 150.362571 191.205 152.568 
C 191.205 154.773429 192.67486 156.888826 195.29086 158.4483 
C 197.906861 160.007774 201.455417 160.884 205.155 160.884 
L 205.155 160.884 
z
" clip-path="url(#p322f9f6f2f)" style="fill: none; stroke: #000000; stroke-linejoin: miter"/>
   </g>
   <g id="patch_6">
    <path d="M 205.155 202.464 
C 208.854583 202.464 212.403139 201.587774 215.01914 200.0283 
C 217.63514 198.468826 219.105 196.353429 219.105 194.148 
C 219.105 191.942571 217.63514 189.827174 215.01914 188.2677 
C 212.403139 186.708226 208.854583 185.832 205.155 185.832 
C 201.455417 185.832 197.906861 186.708226 195.29086 188.2677 
C 192.67486 189.827174 191.205 191.942571 191.205 194.148 
C 191.205 196.353429 192.67486 198.468826 195.29086 200.0283 
C 197.906861 201.587774 201.455417 202.464 205.155 202.464 
L 205.155 202.464 
z
" clip-path="url(#p322f9f6f2f)" style="fill: none; stroke: #000000; stroke-linejoin: miter"/>
   </g>
   <g id="patch_7">
    <path d="M 205.155 244.044 
C 208.854583 244.044 212.403139 243.167774 215.01914 241.6083 
C 217.63514 240.048826 219.105 237.933429 219.105 235.728 
C 219.105 233.522571 217.63514 231.407174 215.01914 229.8477 
C 212.403139 228.288226 208.854583 227.412 205.155 227.412 
C 201.455417 227.412 197.906861 228.288226 195.29086 229.8477 
C 192.67486 231.407174 191.205 233.522571 191.205 235.728 
C 191.205 237.933429 192.67486 240.048826 195.29086 241.6083 
C 197.906861 243.167774 201.455417 244.044 205.155 244.044 
L 205.155 244.044 
z
" clip-path="url(#p322f9f6f2f)" style="fill: none; stroke: #000000; stroke-linejoin: miter"/>
   </g>
   <g id="patch_8">
    <path d="M 205.155 285.624 
C 208.854583 285.624 212.403139 284.747774 215.01914 283.1883 
C 217.63514 281.628826 219.105 279.513429 219.105 277.308 
C 219.105 275.102571 217.63514 272.987174 215.01914 271.4277 
C 212.403139 269.868226 208.854583 268.992 205.155 268.992 
C 201.455417 268.992 197.906861 269.868226 195.29086 271.4277 
C 192.67486 272.987174 191.205 275.102571 191.205 277.308 
C 191.205 279.513429 192.67486 281.628826 195.29086 283.1883 
C 197.906861 284.747774 201.455417 285.624 205.155 285.624 
L 205.155 285.624 
z
" clip-path="url(#p322f9f6f2f)" style="fill: none; stroke: #000000; stroke-linejoin: miter"/>
   </g>
   <g id="patch_9">
    <path d="M 205.155 327.204 
C 208.854583 327.204 212.403139 326.327774 215.01914 324.7683 
C 217.63514 323.208826 219.105 321.093429 219.105 318.888 
C 219.105 316.682571 217.63514 314.567174 215.01914 313.0077 
C 212.403139 311.448226 208.854583 310.572 205.155 310.572 
C 201.455417 310.572 197.906861 311.448226 195.29086 313.0077 
C 192.67486 314.567174 191.205 316.682571 191.205 318.888 
C 191.205 321.093429 192.67486 323.208826 195.29086 324.7683 
C 197.906861 326.327774 201.455417 327.204 205.155 327.204 
L 205.155 327.204 
z
" clip-path="url(#p322f9f6f2f)" style="fill: none; stroke: #000000; stroke-linejoin: miter"/>
   </g>
   <g id="patch_10">
    <path d="M 205.155 368.784 
C 208.854583 368.784 212.403139 367.907774 215.01914 366.3483 
C 217.63514 364.788826 219.105 362.673429 219.105 360.468 
C 219.105 358.262571 217.63514 356.147174 215.01914 354.5877 
C 212.403139 353.028226 208.854583 352.152 205.155 352.152 
C 201.455417 352.152 197.906861 353.028226 195.29086 354.5877 
C 192.67486 356.147174 191.205 358.262571 191.205 360.468 
C 191.205 362.673429 192.67486 364.788826 195.29086 366.3483 
C 197.906861 367.907774 201.455417 368.784 205.155 368.784 
L 205.155 368.784 
z
" clip-path="url(#p322f9f6f2f)" style="fill: none; stroke: #000000; stroke-linejoin: miter"/>
   </g>
   <g id="patch_11">
    <path d="M 351.63 77.724 
C 355.329583 77.724 358.878139 76.847774 361.49414 75.2883 
C 364.11014 73.728826 365.58 71.613429 365.58 69.408 
C 365.58 67.202571 364.11014 65.087174 361.49414 63.5277 
C 358.878139 61.968226 355.329583 61.092 351.63 61.092 
C 347.930417 61.092 344.381861 61.968226 341.76586 63.5277 
C 339.14986 65.087174 337.68 67.202571 337.68 69.408 
C 337.68 71.613429 339.14986 73.728826 341.76586 75.2883 
C 344.381861 76.847774 347.930417 77.724 351.63 77.724 
L 351.63 77.724 
z
" clip-path="url(#p322f9f6f2f)" style="fill: none; stroke: #000000; stroke-linejoin: miter"/>
   </g>
   <g id="patch_12">
    <path d="M 351.63 119.304 
C 355.329583 119.304 358.878139 118.427774 361.49414 116.8683 
C 364.11014 115.308826 365.58 113.193429 365.58 110.988 
C 365.58 108.782571 364.11014 106.667174 361.49414 105.1077 
C 358.878139 103.548226 355.329583 102.672 351.63 102.672 
C 347.930417 102.672 344.381861 103.548226 341.76586 105.1077 
C 339.14986 106.667174 337.68 108.782571 337.68 110.988 
C 337.68 113.193429 339.14986 115.308826 341.76586 116.8683 
C 344.381861 118.427774 347.930417 119.304 351.63 119.304 
L 351.63 119.304 
z
" clip-path="url(#p322f9f6f2f)" style="fill: none; stroke: #000000; stroke-linejoin: miter"/>
   </g>
   <g id="patch_13">
    <path d="M 351.63 160.884 
C 355.329583 160.884 358.878139 160.007774 361.49414 158.4483 
C 364.11014 156.888826 365.58 154.773429 365.58 152.568 
C 365.58 150.362571 364.11014 148.247174 361.49414 146.6877 
C 358.878139 145.128226 355.329583 144.252 351.63 144.252 
C 347.930417 144.252 344.381861 145.128226 341.76586 146.6877 
C 339.14986 148.247174 337.68 150.362571 337.68 152.568 
C 337.68 154.773429 339.14986 156.888826 341.76586 158.4483 
C 344.381861 160.007774 347.930417 160.884 351.63 160.884 
L 351.63 160.884 
z
" clip-path="url(#p322f9f6f2f)" style="fill: none; stroke: #000000; stroke-linejoin: miter"/>
   </g>
   <g id="patch_14">
    <path d="M 351.63 202.464 
C 355.329583 202.464 358.878139 201.587774 361.49414 200.0283 
C 364.11014 198.468826 365.58 196.353429 365.58 194.148 
C 365.58 191.942571 364.11014 189.827174 361.49414 188.2677 
C 358.878139 186.708226 355.329583 185.832 351.63 185.832 
C 347.930417 185.832 344.381861 186.708226 341.76586 188.2677 
C 339.14986 189.827174 337.68 191.942571 337.68 194.148 
C 337.68 196.353429 339.14986 198.468826 341.76586 200.0283 
C 344.381861 201.587774 347.930417 202.464 351.63 202.464 
L 351.63 202.464 
z
" clip-path="url(#p322f9f6f2f)" style="fill: none; stroke: #000000; stroke-linejoin: miter"/>
   </g>
   <g id="patch_15">
    <path d="M 351.63 244.044 
C 355.329583 244.044 358.878139 243.167774 361.49414 241.6083 
C 364.11014 240.048826 365.58 237.933429 365.58 235.728 
C 365.58 233.522571 364.11014 231.407174 361.49414 229.8477 
C 358.878139 228.288226 355.329583 227.412 351.63 227.412 
C 347.930417 227.412 344.381861 228.288226 341.76586 229.8477 
C 339.14986 231.407174 337.68 233.522571 337.68 235.728 
C 337.68 237.933429 339.14986 240.048826 341.76586 241.6083 
C 344.381861 243.167774 347.930417 244.044 351.63 244.044 
L 351.63 244.044 
z
" clip-path="url(#p322f9f6f2f)" style="fill: none; stroke: #000000; stroke-linejoin: miter"/>
   </g>
   <g id="patch_16">
    <path d="M 351.63 285.624 
C 355.329583 285.624 358.878139 284.747774 361.49414 283.1883 
C 364.11014 281.628826 365.58 279.513429 365.58 277.308 
C 365.58 275.102571 364.11014 272.987174 361.49414 271.4277 
C 358.878139 269.868226 355.329583 268.992 351.63 268.992 
C 347.930417 268.992 344.381861 269.868226 341.76586 271.4277 
C 339.14986 272.987174 337.68 275.102571 337.68 277.308 
C 337.68 279.513429 339.14986 281.628826 341.76586 283.1883 
C 344.381861 284.747774 347.930417 285.624 351.63 285.624 
L 351.63 285.624 
z
" clip-path="url(#p322f9f6f2f)" style="fill: none; stroke: #000000; stroke-linejoin: miter"/>
   </g>
   <g id="patch_17">
    <path d="M 351.63 327.204 
C 355.329583 327.204 358.878139 326.327774 361.49414 324.7683 
C 364.11014 323.208826 365.58 321.093429 365.58 318.888 
C 365.58 316.682571 364.11014 314.567174 361.49414 313.0077 
C 358.878139 311.448226 355.329583 310.572 351.63 310.572 
C 347.930417 310.572 344.381861 311.448226 341.76586 313.0077 
C 339.14986 314.567174 337.68 316.682571 337.68 318.888 
C 337.68 321.093429 339.14986 323.208826 341.76586 324.7683 
C 344.381861 326.327774 347.930417 327.204 351.63 327.204 
L 351.63 327.204 
z
" clip-path="url(#p322f9f6f2f)" style="fill: none; stroke: #000000; stroke-linejoin: miter"/>
   </g>
   <g id="patch_18">
    <path d="M 351.63 368.784 
C 355.329583 368.784 358.878139 367.907774 361.49414 366.3483 
C 364.11014 364.788826 365.58 362.673429 365.58 360.468 
C 365.58 358.262571 364.11014 356.147174 361.49414 354.5877 
C 358.878139 353.028226 355.329583 352.152 351.63 352.152 
C 347.930417 352.152 344.381861 353.028226 341.76586 354.5877 
C 339.14986 356.147174 337.68 358.262571 337.68 360.468 
C 337.68 362.673429 339.14986 364.788826 341.76586 366.3483 
C 344.381861 367.907774 347.930417 368.784 351.63 368.784 
L 351.63 368.784 
z
" clip-path="url(#p322f9f6f2f)" style="fill: none; stroke: #000000; stroke-linejoin: miter"/>
   </g>
   <g id="patch_19">
    <path d="M 498.105 77.724 
C 501.804583 77.724 505.353139 76.847774 507.96914 75.2883 
C 510.58514 73.728826 512.055 71.613429 512.055 69.408 
C 512.055 67.202571 510.58514 65.087174 507.96914 63.5277 
C 505.353139 61.968226 501.804583 61.092 498.105 61.092 
C 494.405417 61.092 490.856861 61.968226 488.24086 63.5277 
C 485.62486 65.087174 484.155 67.202571 484.155 69.408 
C 484.155 71.613429 485.62486 73.728826 488.24086 75.2883 
C 490.856861 76.847774 494.405417 77.724 498.105 77.724 
L 498.105 77.724 
z
" clip-path="url(#p322f9f6f2f)" style="fill: none; stroke: #000000; stroke-linejoin: miter"/>
   </g>
   <g id="patch_20">
    <path d="M 498.105 119.304 
C 501.804583 119.304 505.353139 118.427774 507.96914 116.8683 
C 510.58514 115.308826 512.055 113.193429 512.055 110.988 
C 512.055 108.782571 510.58514 106.667174 507.96914 105.1077 
C 505.353139 103.548226 501.804583 102.672 498.105 102.672 
C 494.405417 102.672 490.856861 103.548226 488.24086 105.1077 
C 485.62486 106.667174 484.155 108.782571 484.155 110.988 
C 484.155 113.193429 485.62486 115.308826 488.24086 116.8683 
C 490.856861 118.427774 494.405417 119.304 498.105 119.304 
L 498.105 119.304 
z
" clip-path="url(#p322f9f6f2f)" style="fill: none; stroke: #000000; stroke-linejoin: miter"/>
   </g>
   <g id="patch_21">
    <path d="M 498.105 160.884 
C 501.804583 160.884 505.353139 160.007774 507.96914 158.4483 
C 510.58514 156.888826 512.055 154.773429 512.055 152.568 
C 512.055 150.362571 510.58514 148.247174 507.96914 146.6877 
C 505.353139 145.128226 501.804583 144.252 498.105 144.252 
C 494.405417 144.252 490.856861 145.128226 488.24086 146.6877 
C 485.62486 148.247174 484.155 150.362571 484.155 152.568 
C 484.155 154.773429 485.62486 156.888826 488.24086 158.4483 
C 490.856861 160.007774 494.405417 160.884 498.105 160.884 
L 498.105 160.884 
z
" clip-path="url(#p322f9f6f2f)" style="fill: none; stroke: #000000; stroke-linejoin: miter"/>
   </g>
   <g id="patch_22">
    <path d="M 498.105 202.464 
C 501.804583 202.464 505.353139 201.587774 507.96914 200.0283 
C 510.58514 198.468826 512.055 196.353429 512.055 194.148 
C 512.055 191.942571 510.58514 189.827174 507.96914 188.2677 
C 505.353139 186.708226 501.804583 185.832 498.105 185.832 
C 494.405417 185.832 490.856861 186.708226 488.24086 188.2677 
C 485.62486 189.827174 484.155 191.942571 484.155 194.148 
C 484.155 196.353429 485.62486 198.468826 488.24086 200.0283 
C 490.856861 201.587774 494.405417 202.464 498.105 202.464 
L 498.105 202.464 
z
" clip-path="url(#p322f9f6f2f)" style="fill: none; stroke: #000000; stroke-linejoin: miter"/>
   </g>
   <g id="patch_23">
    <path d="M 498.105 244.044 
C 501.804583 244.044 505.353139 243.167774 507.96914 241.6083 
C 510.58514 240.048826 512.055 237.933429 512.055 235.728 
C 512.055 233.522571 510.58514 231.407174 507.96914 229.8477 
C 505.353139 228.288226 501.804583 227.412 498.105 227.412 
C 494.405417 227.412 490.856861 228.288226 488.24086 229.8477 
C 485.62486 231.407174 484.155 233.522571 484.155 235.728 
C 484.155 237.933429 485.62486 240.048826 488.24086 241.6083 
C 490.856861 243.167774 494.405417 244.044 498.105 244.044 
L 498.105 244.044 
z
" clip-path="url(#p322f9f6f2f)" style="fill: none; stroke: #000000; stroke-linejoin: miter"/>
   </g>
   <g id="patch_24">
    <path d="M 498.105 285.624 
C 501.804583 285.624 505.353139 284.747774 507.96914 283.1883 
C 510.58514 281.628826 512.055 279.513429 512.055 277.308 
C 512.055 275.102571 510.58514 272.987174 507.96914 271.4277 
C 505.353139 269.868226 501.804583 268.992 498.105 268.992 
C 494.405417 268.992 490.856861 269.868226 488.24086 271.4277 
C 485.62486 272.987174 484.155 275.102571 484.155 277.308 
C 484.155 279.513429 485.62486 281.628826 488.24086 283.1883 
C 490.856861 284.747774 494.405417 285.624 498.105 285.624 
L 498.105 285.624 
z
" clip-path="url(#p322f9f6f2f)" style="fill: none; stroke: #000000; stroke-linejoin: miter"/>
   </g>
   <g id="patch_25">
    <path d="M 498.105 327.204 
C 501.804583 327.204 505.353139 326.327774 507.96914 324.7683 
C 510.58514 323.208826 512.055 321.093429 512.055 318.888 
C 512.055 316.682571 510.58514 314.567174 507.96914 313.0077 
C 505.353139 311.448226 501.804583 310.572 498.105 310.572 
C 494.405417 310.572 490.856861 311.448226 488.24086 313.0077 
C 485.62486 314.567174 484.155 316.682571 484.155 318.888 
C 484.155 321.093429 485.62486 323.208826 488.24086 324.7683 
C 490.856861 326.327774 494.405417 327.204 498.105 327.204 
L 498.105 327.204 
z
" clip-path="url(#p322f9f6f2f)" style="fill: none; stroke: #000000; stroke-linejoin: miter"/>
   </g>
   <g id="patch_26">
    <path d="M 498.105 368.784 
C 501.804583 368.784 505.353139 367.907774 507.96914 366.3483 
C 510.58514 364.788826 512.055 362.673429 512.055 360.468 
C 512.055 358.262571 510.58514 356.147174 507.96914 354.5877 
C 505.353139 353.028226 501.804583 352.152 498.105 352.152 
C 494.405417 352.152 490.856861 353.028226 488.24086 354.5877 
C 485.62486 356.147174 484.155 358.262571 484.155 360.468 
C 484.155 362.673429 485.62486 364.788826 488.24086 366.3483 
C 490.856861 367.907774 494.405417 368.784 498.105 368.784 
L 498.105 368.784 
z
" clip-path="url(#p322f9f6f2f)" style="fill: none; stroke: #000000; stroke-linejoin: miter"/>
   </g>
   <g id="patch_27">
    <path d="M 644.58 77.724 
C 648.279583 77.724 651.828139 76.847774 654.44414 75.2883 
C 657.06014 73.728826 658.53 71.613429 658.53 69.408 
C 658.53 67.202571 657.06014 65.087174 654.44414 63.5277 
C 651.828139 61.968226 648.279583 61.092 644.58 61.092 
C 640.880417 61.092 637.331861 61.968226 634.71586 63.5277 
C 632.09986 65.087174 630.63 67.202571 630.63 69.408 
C 630.63 71.613429 632.09986 73.728826 634.71586 75.2883 
C 637.331861 76.847774 640.880417 77.724 644.58 77.724 
L 644.58 77.724 
z
" clip-path="url(#p322f9f6f2f)" style="fill: none; stroke: #000000; stroke-linejoin: miter"/>
   </g>
   <g id="patch_28">
    <path d="M 644.58 119.304 
C 648.279583 119.304 651.828139 118.427774 654.44414 116.8683 
C 657.06014 115.308826 658.53 113.193429 658.53 110.988 
C 658.53 108.782571 657.06014 106.667174 654.44414 105.1077 
C 651.828139 103.548226 648.279583 102.672 644.58 102.672 
C 640.880417 102.672 637.331861 103.548226 634.71586 105.1077 
C 632.09986 106.667174 630.63 108.782571 630.63 110.988 
C 630.63 113.193429 632.09986 115.308826 634.71586 116.8683 
C 637.331861 118.427774 640.880417 119.304 644.58 119.304 
L 644.58 119.304 
z
" clip-path="url(#p322f9f6f2f)" style="fill: none; stroke: #000000; stroke-linejoin: miter"/>
   </g>
   <g id="patch_29">
    <path d="M 644.58 160.884 
C 648.279583 160.884 651.828139 160.007774 654.44414 158.4483 
C 657.06014 156.888826 658.53 154.773429 658.53 152.568 
C 658.53 150.362571 657.06014 148.247174 654.44414 146.6877 
C 651.828139 145.128226 648.279583 144.252 644.58 144.252 
C 640.880417 144.252 637.331861 145.128226 634.71586 146.6877 
C 632.09986 148.247174 630.63 150.362571 630.63 152.568 
C 630.63 154.773429 632.09986 156.888826 634.71586 158.4483 
C 637.331861 160.007774 640.880417 160.884 644.58 160.884 
L 644.58 160.884 
z
" clip-path="url(#p322f9f6f2f)" style="fill: none; stroke: #000000; stroke-linejoin: miter"/>
   </g>
   <g id="patch_30">
    <path d="M 644.58 202.464 
C 648.279583 202.464 651.828139 201.587774 654.44414 200.0283 
C 657.06014 198.468826 658.53 196.353429 658.53 194.148 
C 658.53 191.942571 657.06014 189.827174 654.44414 188.2677 
C 651.828139 186.708226 648.279583 185.832 644.58 185.832 
C 640.880417 185.832 637.331861 186.708226 634.71586 188.2677 
C 632.09986 189.827174 630.63 191.942571 630.63 194.148 
C 630.63 196.353429 632.09986 198.468826 634.71586 200.0283 
C 637.331861 201.587774 640.880417 202.464 644.58 202.464 
L 644.58 202.464 
z
" clip-path="url(#p322f9f6f2f)" style="fill: none; stroke: #000000; stroke-linejoin: miter"/>
   </g>
   <g id="patch_31">
    <path d="M 644.58 244.044 
C 648.279583 244.044 651.828139 243.167774 654.44414 241.6083 
C 657.06014 240.048826 658.53 237.933429 658.53 235.728 
C 658.53 233.522571 657.06014 231.407174 654.44414 229.8477 
C 651.828139 228.288226 648.279583 227.412 644.58 227.412 
C 640.880417 227.412 637.331861 228.288226 634.71586 229.8477 
C 632.09986 231.407174 630.63 233.522571 630.63 235.728 
C 630.63 237.933429 632.09986 240.048826 634.71586 241.6083 
C 637.331861 243.167774 640.880417 244.044 644.58 244.044 
L 644.58 244.044 
z
" clip-path="url(#p322f9f6f2f)" style="fill: none; stroke: #000000; stroke-linejoin: miter"/>
   </g>
   <g id="patch_32">
    <path d="M 644.58 285.624 
C 648.279583 285.624 651.828139 284.747774 654.44414 283.1883 
C 657.06014 281.628826 658.53 279.513429 658.53 277.308 
C 658.53 275.102571 657.06014 272.987174 654.44414 271.4277 
C 651.828139 269.868226 648.279583 268.992 644.58 268.992 
C 640.880417 268.992 637.331861 269.868226 634.71586 271.4277 
C 632.09986 272.987174 630.63 275.102571 630.63 277.308 
C 630.63 279.513429 632.09986 281.628826 634.71586 283.1883 
C 637.331861 284.747774 640.880417 285.624 644.58 285.624 
L 644.58 285.624 
z
" clip-path="url(#p322f9f6f2f)" style="fill: none; stroke: #000000; stroke-linejoin: miter"/>
   </g>
   <g id="patch_33">
    <path d="M 644.58 327.204 
C 648.279583 327.204 651.828139 326.327774 654.44414 324.7683 
C 657.06014 323.208826 658.53 321.093429 658.53 318.888 
C 658.53 316.682571 657.06014 314.567174 654.44414 313.0077 
C 651.828139 311.448226 648.279583 310.572 644.58 310.572 
C 640.880417 310.572 637.331861 311.448226 634.71586 313.0077 
C 632.09986 314.567174 630.63 316.682571 630.63 318.888 
C 630.63 321.093429 632.09986 323.208826 634.71586 324.7683 
C 637.331861 326.327774 640.880417 327.204 644.58 327.204 
L 644.58 327.204 
z
" clip-path="url(#p322f9f6f2f)" style="fill: none; stroke: #000000; stroke-linejoin: miter"/>
   </g>
   <g id="patch_34">
    <path d="M 644.58 368.784 
C 648.279583 368.784 651.828139 367.907774 654.44414 366.3483 
C 657.06014 364.788826 658.53 362.673429 658.53 360.468 
C 658.53 358.262571 657.06014 356.147174 654.44414 354.5877 
C 651.828139 353.028226 648.279583 352.152 644.58 352.152 
C 640.880417 352.152 637.331861 353.028226 634.71586 354.5877 
C 632.09986 356.147174 630.63 358.262571 630.63 360.468 
C 630.63 362.673429 632.09986 364.788826 634.71586 366.3483 
C 637.331861 367.907774 640.880417 368.784 644.58 368.784 
L 644.58 368.784 
z
" clip-path="url(#p322f9f6f2f)" style="fill: none; stroke: #000000; stroke-linejoin: miter"/>
   </g>
   <g id="text_1">
    <!-- $t=0$ -->
    <g transform="translate(41.73 27.809062) scale(0.15 -0.15)">
     <defs>
      <path id="DejaVuSans-Oblique-74" d="M 2706 3500 
L 2619 3053 
L 1472 3053 
L 1100 1153 
Q 1081 1047 1072 975 
Q 1063 903 1063 863 
Q 1063 663 1183 572 
Q 1303 481 1569 481 
L 2150 481 
L 2053 0 
L 1503 0 
Q 991 0 739 200 
Q 488 400 488 806 
Q 488 878 497 964 
Q 506 1050 525 1153 
L 897 3053 
L 409 3053 
L 500 3500 
L 978 3500 
L 1172 4494 
L 1747 4494 
L 1556 3500 
L 2706 3500 
z
" transform="scale(0.015625)"/>
      <path id="DejaVuSans-3d" d="M 678 2906 
L 4684 2906 
L 4684 2381 
L 678 2381 
L 678 2906 
z
M 678 1631 
L 4684 1631 
L 4684 1100 
L 678 1100 
L 678 1631 
z
" transform="scale(0.015625)"/>
      <path id="DejaVuSans-30" d="M 2034 4250 
Q 1547 4250 1301 3770 
Q 1056 3291 1056 2328 
Q 1056 1369 1301 889 
Q 1547 409 2034 409 
Q 2525 409 2770 889 
Q 3016 1369 3016 2328 
Q 3016 3291 2770 3770 
Q 2525 4250 2034 4250 
z
M 2034 4750 
Q 2819 4750 3233 4129 
Q 3647 3509 3647 2328 
Q 3647 1150 3233 529 
Q 2819 -91 2034 -91 
Q 1250 -91 836 529 
Q 422 1150 422 2328 
Q 422 3509 836 4129 
Q 1250 4750 2034 4750 
z
" transform="scale(0.015625)"/>
     </defs>
     <use xlink:href="#DejaVuSans-Oblique-74" transform="translate(0 0.78125)"/>
     <use xlink:href="#DejaVuSans-3d" transform="translate(58.691406 0.78125)"/>
     <use xlink:href="#DejaVuSans-30" transform="translate(161.962891 0.78125)"/>
    </g>
   </g>
   <g id="text_2">
    <!-- $t=1$ -->
    <g transform="translate(188.205 27.809062) scale(0.15 -0.15)">
     <defs>
      <path id="DejaVuSans-31" d="M 794 531 
L 1825 531 
L 1825 4091 
L 703 3866 
L 703 4441 
L 1819 4666 
L 2450 4666 
L 2450 531 
L 3481 531 
L 3481 0 
L 794 0 
L 794 531 
z
" transform="scale(0.015625)"/>
     </defs>
     <use xlink:href="#DejaVuSans-Oblique-74" transform="translate(0 0.09375)"/>
     <use xlink:href="#DejaVuSans-3d" transform="translate(58.691406 0.09375)"/>
     <use xlink:href="#DejaVuSans-31" transform="translate(161.962891 0.09375)"/>
    </g>
   </g>
   <g id="text_3">
    <!-- $t=2$ -->
    <g transform="translate(334.68 27.809062) scale(0.15 -0.15)">
     <defs>
      <path id="DejaVuSans-32" d="M 1228 531 
L 3431 531 
L 3431 0 
L 469 0 
L 469 531 
Q 828 903 1448 1529 
Q 2069 2156 2228 2338 
Q 2531 2678 2651 2914 
Q 2772 3150 2772 3378 
Q 2772 3750 2511 3984 
Q 2250 4219 1831 4219 
Q 1534 4219 1204 4116 
Q 875 4013 500 3803 
L 500 4441 
Q 881 4594 1212 4672 
Q 1544 4750 1819 4750 
Q 2544 4750 2975 4387 
Q 3406 4025 3406 3419 
Q 3406 3131 3298 2873 
Q 3191 2616 2906 2266 
Q 2828 2175 2409 1742 
Q 1991 1309 1228 531 
z
" transform="scale(0.015625)"/>
     </defs>
     <use xlink:href="#DejaVuSans-Oblique-74" transform="translate(0 0.78125)"/>
     <use xlink:href="#DejaVuSans-3d" transform="translate(58.691406 0.78125)"/>
     <use xlink:href="#DejaVuSans-32" transform="translate(161.962891 0.78125)"/>
    </g>
   </g>
   <g id="text_4">
    <!-- $t=3$ -->
    <g transform="translate(481.155 27.809062) scale(0.15 -0.15)">
     <defs>
      <path id="DejaVuSans-33" d="M 2597 2516 
Q 3050 2419 3304 2112 
Q 3559 1806 3559 1356 
Q 3559 666 3084 287 
Q 2609 -91 1734 -91 
Q 1441 -91 1130 -33 
Q 819 25 488 141 
L 488 750 
Q 750 597 1062 519 
Q 1375 441 1716 441 
Q 2309 441 2620 675 
Q 2931 909 2931 1356 
Q 2931 1769 2642 2001 
Q 2353 2234 1838 2234 
L 1294 2234 
L 1294 2753 
L 1863 2753 
Q 2328 2753 2575 2939 
Q 2822 3125 2822 3475 
Q 2822 3834 2567 4026 
Q 2313 4219 1838 4219 
Q 1578 4219 1281 4162 
Q 984 4106 628 3988 
L 628 4550 
Q 988 4650 1302 4700 
Q 1616 4750 1894 4750 
Q 2613 4750 3031 4423 
Q 3450 4097 3450 3541 
Q 3450 3153 3228 2886 
Q 3006 2619 2597 2516 
z
" transform="scale(0.015625)"/>
     </defs>
     <use xlink:href="#DejaVuSans-Oblique-74" transform="translate(0 0.78125)"/>
     <use xlink:href="#DejaVuSans-3d" transform="translate(58.691406 0.78125)"/>
     <use xlink:href="#DejaVuSans-33" transform="translate(161.962891 0.78125)"/>
    </g>
   </g>
   <g id="text_5">
    <!-- $t=4$ -->
    <g transform="translate(627.63 27.809062) scale(0.15 -0.15)">
     <defs>
      <path id="DejaVuSans-34" d="M 2419 4116 
L 825 1625 
L 2419 1625 
L 2419 4116 
z
M 2253 4666 
L 3047 4666 
L 3047 1625 
L 3713 1625 
L 3713 1100 
L 3047 1100 
L 3047 0 
L 2419 0 
L 2419 1100 
L 313 1100 
L 313 1709 
L 2253 4666 
z
" transform="scale(0.015625)"/>
     </defs>
     <use xlink:href="#DejaVuSans-Oblique-74" transform="translate(0 0.09375)"/>
     <use xlink:href="#DejaVuSans-3d" transform="translate(58.691406 0.09375)"/>
     <use xlink:href="#DejaVuSans-34" transform="translate(161.962891 0.09375)"/>
    </g>
   </g>
   <g id="text_6">
    <!-- $z_{i_0}$ -->
    <g transform="translate(51.66 213.300781) scale(0.13 -0.13)">
     <defs>
      <path id="DejaVuSans-Oblique-7a" d="M 744 3500 
L 3475 3500 
L 3372 2975 
L 738 459 
L 2913 459 
L 2822 0 
L -19 0 
L 84 525 
L 2719 3041 
L 653 3041 
L 744 3500 
z
" transform="scale(0.015625)"/>
      <path id="DejaVuSans-Oblique-69" d="M 1172 4863 
L 1747 4863 
L 1606 4134 
L 1031 4134 
L 1172 4863 
z
M 909 3500 
L 1484 3500 
L 800 0 
L 225 0 
L 909 3500 
z
" transform="scale(0.015625)"/>
     </defs>
     <use xlink:href="#DejaVuSans-Oblique-7a" transform="translate(0 0.3125)"/>
     <use xlink:href="#DejaVuSans-Oblique-69" transform="translate(52.490234 -16.09375) scale(0.7)"/>
     <use xlink:href="#DejaVuSans-30" transform="translate(71.938477 -27.578125) scale(0.49)"/>
    </g>
   </g>
   <g id="text_7">
    <!-- $z_1$ -->
    <g transform="translate(198.655 72.995187) scale(0.13 -0.13)">
     <use xlink:href="#DejaVuSans-Oblique-7a" transform="translate(0 0.3125)"/>
     <use xlink:href="#DejaVuSans-31" transform="translate(52.490234 -16.09375) scale(0.7)"/>
    </g>
   </g>
   <g id="text_8">
    <!-- $z_2$ -->
    <g transform="translate(198.655 114.575187) scale(0.13 -0.13)">
     <use xlink:href="#DejaVuSans-Oblique-7a" transform="translate(0 0.3125)"/>
     <use xlink:href="#DejaVuSans-32" transform="translate(52.490234 -16.09375) scale(0.7)"/>
    </g>
   </g>
   <g id="text_9">
    <!-- $z_3$ -->
    <g transform="translate(198.655 156.155187) scale(0.13 -0.13)">
     <use xlink:href="#DejaVuSans-Oblique-7a" transform="translate(0 0.3125)"/>
     <use xlink:href="#DejaVuSans-33" transform="translate(52.490234 -16.09375) scale(0.7)"/>
    </g>
   </g>
   <g id="text_10">
    <!-- $z_4$ -->
    <g transform="translate(198.655 197.735187) scale(0.13 -0.13)">
     <use xlink:href="#DejaVuSans-Oblique-7a" transform="translate(0 0.3125)"/>
     <use xlink:href="#DejaVuSans-34" transform="translate(52.490234 -16.09375) scale(0.7)"/>
    </g>
   </g>
   <g id="text_11">
    <!-- $z_5$ -->
    <g transform="translate(198.655 239.315187) scale(0.13 -0.13)">
     <defs>
      <path id="DejaVuSans-35" d="M 691 4666 
L 3169 4666 
L 3169 4134 
L 1269 4134 
L 1269 2991 
Q 1406 3038 1543 3061 
Q 1681 3084 1819 3084 
Q 2600 3084 3056 2656 
Q 3513 2228 3513 1497 
Q 3513 744 3044 326 
Q 2575 -91 1722 -91 
Q 1428 -91 1123 -41 
Q 819 9 494 109 
L 494 744 
Q 775 591 1075 516 
Q 1375 441 1709 441 
Q 2250 441 2565 725 
Q 2881 1009 2881 1497 
Q 2881 1984 2565 2268 
Q 2250 2553 1709 2553 
Q 1456 2553 1204 2497 
Q 953 2441 691 2322 
L 691 4666 
z
" transform="scale(0.015625)"/>
     </defs>
     <use xlink:href="#DejaVuSans-Oblique-7a" transform="translate(0 0.3125)"/>
     <use xlink:href="#DejaVuSans-35" transform="translate(52.490234 -16.09375) scale(0.7)"/>
    </g>
   </g>
   <g id="text_12">
    <!-- $z_6$ -->
    <g transform="translate(198.655 280.895187) scale(0.13 -0.13)">
     <defs>
      <path id="DejaVuSans-36" d="M 2113 2584 
Q 1688 2584 1439 2293 
Q 1191 2003 1191 1497 
Q 1191 994 1439 701 
Q 1688 409 2113 409 
Q 2538 409 2786 701 
Q 3034 994 3034 1497 
Q 3034 2003 2786 2293 
Q 2538 2584 2113 2584 
z
M 3366 4563 
L 3366 3988 
Q 3128 4100 2886 4159 
Q 2644 4219 2406 4219 
Q 1781 4219 1451 3797 
Q 1122 3375 1075 2522 
Q 1259 2794 1537 2939 
Q 1816 3084 2150 3084 
Q 2853 3084 3261 2657 
Q 3669 2231 3669 1497 
Q 3669 778 3244 343 
Q 2819 -91 2113 -91 
Q 1303 -91 875 529 
Q 447 1150 447 2328 
Q 447 3434 972 4092 
Q 1497 4750 2381 4750 
Q 2619 4750 2861 4703 
Q 3103 4656 3366 4563 
z
" transform="scale(0.015625)"/>
     </defs>
     <use xlink:href="#DejaVuSans-Oblique-7a" transform="translate(0 0.3125)"/>
     <use xlink:href="#DejaVuSans-36" transform="translate(52.490234 -16.09375) scale(0.7)"/>
    </g>
   </g>
   <g id="text_13">
    <!-- $z_7$ -->
    <g transform="translate(198.655 322.475187) scale(0.13 -0.13)">
     <defs>
      <path id="DejaVuSans-37" d="M 525 4666 
L 3525 4666 
L 3525 4397 
L 1831 0 
L 1172 0 
L 2766 4134 
L 525 4134 
L 525 4666 
z
" transform="scale(0.015625)"/>
     </defs>
     <use xlink:href="#DejaVuSans-Oblique-7a" transform="translate(0 0.3125)"/>
     <use xlink:href="#DejaVuSans-37" transform="translate(52.490234 -16.09375) scale(0.7)"/>
    </g>
   </g>
   <g id="text_14">
    <!-- $z_8$ -->
    <g transform="translate(198.655 364.055187) scale(0.13 -0.13)">
     <defs>
      <path id="DejaVuSans-38" d="M 2034 2216 
Q 1584 2216 1326 1975 
Q 1069 1734 1069 1313 
Q 1069 891 1326 650 
Q 1584 409 2034 409 
Q 2484 409 2743 651 
Q 3003 894 3003 1313 
Q 3003 1734 2745 1975 
Q 2488 2216 2034 2216 
z
M 1403 2484 
Q 997 2584 770 2862 
Q 544 3141 544 3541 
Q 544 4100 942 4425 
Q 1341 4750 2034 4750 
Q 2731 4750 3128 4425 
Q 3525 4100 3525 3541 
Q 3525 3141 3298 2862 
Q 3072 2584 2669 2484 
Q 3125 2378 3379 2068 
Q 3634 1759 3634 1313 
Q 3634 634 3220 271 
Q 2806 -91 2034 -91 
Q 1263 -91 848 271 
Q 434 634 434 1313 
Q 434 1759 690 2068 
Q 947 2378 1403 2484 
z
M 1172 3481 
Q 1172 3119 1398 2916 
Q 1625 2713 2034 2713 
Q 2441 2713 2670 2916 
Q 2900 3119 2900 3481 
Q 2900 3844 2670 4047 
Q 2441 4250 2034 4250 
Q 1625 4250 1398 4047 
Q 1172 3844 1172 3481 
z
" transform="scale(0.015625)"/>
     </defs>
     <use xlink:href="#DejaVuSans-Oblique-7a" transform="translate(0 0.3125)"/>
     <use xlink:href="#DejaVuSans-38" transform="translate(52.490234 -16.09375) scale(0.7)"/>
    </g>
   </g>
   <g id="text_15">
    <!-- $z_1$ -->
    <g transform="translate(345.13 72.995187) scale(0.13 -0.13)">
     <use xlink:href="#DejaVuSans-Oblique-7a" transform="translate(0 0.3125)"/>
     <use xlink:href="#DejaVuSans-31" transform="translate(52.490234 -16.09375) scale(0.7)"/>
    </g>
   </g>
   <g id="text_16">
    <!-- $z_2$ -->
    <g transform="translate(345.13 114.575187) scale(0.13 -0.13)">
     <use xlink:href="#DejaVuSans-Oblique-7a" transform="translate(0 0.3125)"/>
     <use xlink:href="#DejaVuSans-32" transform="translate(52.490234 -16.09375) scale(0.7)"/>
    </g>
   </g>
   <g id="text_17">
    <!-- $z_3$ -->
    <g transform="translate(345.13 156.155187) scale(0.13 -0.13)">
     <use xlink:href="#DejaVuSans-Oblique-7a" transform="translate(0 0.3125)"/>
     <use xlink:href="#DejaVuSans-33" transform="translate(52.490234 -16.09375) scale(0.7)"/>
    </g>
   </g>
   <g id="text_18">
    <!-- $z_4$ -->
    <g transform="translate(345.13 197.735187) scale(0.13 -0.13)">
     <use xlink:href="#DejaVuSans-Oblique-7a" transform="translate(0 0.3125)"/>
     <use xlink:href="#DejaVuSans-34" transform="translate(52.490234 -16.09375) scale(0.7)"/>
    </g>
   </g>
   <g id="text_19">
    <!-- $z_5$ -->
    <g transform="translate(345.13 239.315187) scale(0.13 -0.13)">
     <use xlink:href="#DejaVuSans-Oblique-7a" transform="translate(0 0.3125)"/>
     <use xlink:href="#DejaVuSans-35" transform="translate(52.490234 -16.09375) scale(0.7)"/>
    </g>
   </g>
   <g id="text_20">
    <!-- $z_6$ -->
    <g transform="translate(345.13 280.895187) scale(0.13 -0.13)">
     <use xlink:href="#DejaVuSans-Oblique-7a" transform="translate(0 0.3125)"/>
     <use xlink:href="#DejaVuSans-36" transform="translate(52.490234 -16.09375) scale(0.7)"/>
    </g>
   </g>
   <g id="text_21">
    <!-- $z_7$ -->
    <g transform="translate(345.13 322.475187) scale(0.13 -0.13)">
     <use xlink:href="#DejaVuSans-Oblique-7a" transform="translate(0 0.3125)"/>
     <use xlink:href="#DejaVuSans-37" transform="translate(52.490234 -16.09375) scale(0.7)"/>
    </g>
   </g>
   <g id="text_22">
    <!-- $z_8$ -->
    <g transform="translate(345.13 364.055187) scale(0.13 -0.13)">
     <use xlink:href="#DejaVuSans-Oblique-7a" transform="translate(0 0.3125)"/>
     <use xlink:href="#DejaVuSans-38" transform="translate(52.490234 -16.09375) scale(0.7)"/>
    </g>
   </g>
   <g id="text_23">
    <!-- $z_1$ -->
    <g transform="translate(491.605 72.995187) scale(0.13 -0.13)">
     <use xlink:href="#DejaVuSans-Oblique-7a" transform="translate(0 0.3125)"/>
     <use xlink:href="#DejaVuSans-31" transform="translate(52.490234 -16.09375) scale(0.7)"/>
    </g>
   </g>
   <g id="text_24">
    <!-- $z_2$ -->
    <g transform="translate(491.605 114.575187) scale(0.13 -0.13)">
     <use xlink:href="#DejaVuSans-Oblique-7a" transform="translate(0 0.3125)"/>
     <use xlink:href="#DejaVuSans-32" transform="translate(52.490234 -16.09375) scale(0.7)"/>
    </g>
   </g>
   <g id="text_25">
    <!-- $z_3$ -->
    <g transform="translate(491.605 156.155187) scale(0.13 -0.13)">
     <use xlink:href="#DejaVuSans-Oblique-7a" transform="translate(0 0.3125)"/>
     <use xlink:href="#DejaVuSans-33" transform="translate(52.490234 -16.09375) scale(0.7)"/>
    </g>
   </g>
   <g id="text_26">
    <!-- $z_4$ -->
    <g transform="translate(491.605 197.735187) scale(0.13 -0.13)">
     <use xlink:href="#DejaVuSans-Oblique-7a" transform="translate(0 0.3125)"/>
     <use xlink:href="#DejaVuSans-34" transform="translate(52.490234 -16.09375) scale(0.7)"/>
    </g>
   </g>
   <g id="text_27">
    <!-- $z_5$ -->
    <g transform="translate(491.605 239.315187) scale(0.13 -0.13)">
     <use xlink:href="#DejaVuSans-Oblique-7a" transform="translate(0 0.3125)"/>
     <use xlink:href="#DejaVuSans-35" transform="translate(52.490234 -16.09375) scale(0.7)"/>
    </g>
   </g>
   <g id="text_28">
    <!-- $z_6$ -->
    <g transform="translate(491.605 280.895187) scale(0.13 -0.13)">
     <use xlink:href="#DejaVuSans-Oblique-7a" transform="translate(0 0.3125)"/>
     <use xlink:href="#DejaVuSans-36" transform="translate(52.490234 -16.09375) scale(0.7)"/>
    </g>
   </g>
   <g id="text_29">
    <!-- $z_7$ -->
    <g transform="translate(491.605 322.475187) scale(0.13 -0.13)">
     <use xlink:href="#DejaVuSans-Oblique-7a" transform="translate(0 0.3125)"/>
     <use xlink:href="#DejaVuSans-37" transform="translate(52.490234 -16.09375) scale(0.7)"/>
    </g>
   </g>
   <g id="text_30">
    <!-- $z_8$ -->
    <g transform="translate(491.605 364.055187) scale(0.13 -0.13)">
     <use xlink:href="#DejaVuSans-Oblique-7a" transform="translate(0 0.3125)"/>
     <use xlink:href="#DejaVuSans-38" transform="translate(52.490234 -16.09375) scale(0.7)"/>
    </g>
   </g>
   <g id="text_31">
    <!-- $z_1$ -->
    <g transform="translate(638.08 72.995187) scale(0.13 -0.13)">
     <use xlink:href="#DejaVuSans-Oblique-7a" transform="translate(0 0.3125)"/>
     <use xlink:href="#DejaVuSans-31" transform="translate(52.490234 -16.09375) scale(0.7)"/>
    </g>
   </g>
   <g id="text_32">
    <!-- $z_2$ -->
    <g transform="translate(638.08 114.575187) scale(0.13 -0.13)">
     <use xlink:href="#DejaVuSans-Oblique-7a" transform="translate(0 0.3125)"/>
     <use xlink:href="#DejaVuSans-32" transform="translate(52.490234 -16.09375) scale(0.7)"/>
    </g>
   </g>
   <g id="text_33">
    <!-- $z_3$ -->
    <g transform="translate(638.08 156.155187) scale(0.13 -0.13)">
     <use xlink:href="#DejaVuSans-Oblique-7a" transform="translate(0 0.3125)"/>
     <use xlink:href="#DejaVuSans-33" transform="translate(52.490234 -16.09375) scale(0.7)"/>
    </g>
   </g>
   <g id="text_34">
    <!-- $z_4$ -->
    <g transform="translate(638.08 197.735187) scale(0.13 -0.13)">
     <use xlink:href="#DejaVuSans-Oblique-7a" transform="translate(0 0.3125)"/>
     <use xlink:href="#DejaVuSans-34" transform="translate(52.490234 -16.09375) scale(0.7)"/>
    </g>
   </g>
   <g id="text_35">
    <!-- $z_5$ -->
    <g transform="translate(638.08 239.315187) scale(0.13 -0.13)">
     <use xlink:href="#DejaVuSans-Oblique-7a" transform="translate(0 0.3125)"/>
     <use xlink:href="#DejaVuSans-35" transform="translate(52.490234 -16.09375) scale(0.7)"/>
    </g>
   </g>
   <g id="text_36">
    <!-- $z_6$ -->
    <g transform="translate(638.08 280.895187) scale(0.13 -0.13)">
     <use xlink:href="#DejaVuSans-Oblique-7a" transform="translate(0 0.3125)"/>
     <use xlink:href="#DejaVuSans-36" transform="translate(52.490234 -16.09375) scale(0.7)"/>
    </g>
   </g>
   <g id="text_37">
    <!-- $z_7$ -->
    <g transform="translate(638.08 322.475187) scale(0.13 -0.13)">
     <use xlink:href="#DejaVuSans-Oblique-7a" transform="translate(0 0.3125)"/>
     <use xlink:href="#DejaVuSans-37" transform="translate(52.490234 -16.09375) scale(0.7)"/>
    </g>
   </g>
   <g id="text_38">
    <!-- $z_8$ -->
    <g transform="translate(638.08 364.055187) scale(0.13 -0.13)">
     <use xlink:href="#DejaVuSans-Oblique-7a" transform="translate(0 0.3125)"/>
     <use xlink:href="#DejaVuSans-38" transform="translate(52.490234 -16.09375) scale(0.7)"/>
    </g>
   </g>
   <g id="patch_35">
    <path d="M 77.355494 209.211741 
Q 131.917631 140.093834 185.925569 71.677972 
" style="fill: none; stroke: #000000; stroke-width: 0.8; stroke-linecap: round"/>
    <path d="M 181.877305 73.578381 
L 185.925569 71.677972 
L 185.016938 76.056829 
" style="fill: none; stroke: #000000; stroke-width: 0.8; stroke-linecap: round"/>
   </g>
   <g id="patch_36">
    <path d="M 77.605818 209.449156 
Q 131.917343 160.88414 185.562124 112.915323 
" style="fill: none; stroke: #000000; stroke-width: 0.8; stroke-linecap: round"/>
    <path d="M 181.247215 114.090717 
L 185.562124 112.915323 
L 183.913494 117.072488 
" style="fill: none; stroke: #000000; stroke-width: 0.8; stroke-linecap: round"/>
   </g>
   <g id="patch_37">
    <path d="M 77.891902 209.854449 
Q 131.9182 181.673635 185.151471 153.906474 
" style="fill: none; stroke: #000000; stroke-width: 0.8; stroke-linecap: round"/>
    <path d="M 180.679992 153.983124 
L 185.151471 153.906474 
L 182.529904 157.529647 
" style="fill: none; stroke: #000000; stroke-width: 0.8; stroke-linecap: round"/>
   </g>
   <g id="patch_38">
    <path d="M 78.096248 210.485103 
Q 131.918315 202.463878 184.855727 194.574497 
" style="fill: none; stroke: #000000; stroke-width: 0.8; stroke-linecap: round"/>
    <path d="M 180.604613 193.185961 
L 184.855727 194.574497 
L 181.19423 197.142266 
" style="fill: none; stroke: #000000; stroke-width: 0.8; stroke-linecap: round"/>
   </g>
   <g id="patch_39">
    <path d="M 78.069001 211.216255 
Q 131.917832 223.254074 184.893779 235.096762 
" style="fill: none; stroke: #000000; stroke-width: 0.8; stroke-linecap: round"/>
    <path d="M 181.426457 232.272283 
L 184.893779 235.096762 
L 180.553803 236.175932 
" style="fill: none; stroke: #000000; stroke-width: 0.8; stroke-linecap: round"/>
   </g>
   <g id="patch_40">
    <path d="M 77.83741 211.805288 
Q 131.91734 244.043905 185.228996 275.824531 
" style="fill: none; stroke: #000000; stroke-width: 0.8; stroke-linecap: round"/>
    <path d="M 182.817269 272.058423 
L 185.228996 275.824531 
L 180.769073 275.494248 
" style="fill: none; stroke: #000000; stroke-width: 0.8; stroke-linecap: round"/>
   </g>
   <g id="patch_41">
    <path d="M 77.551326 212.168961 
Q 131.916625 264.833152 185.639497 316.875019 
" style="fill: none; stroke: #000000; stroke-width: 0.8; stroke-linecap: round"/>
    <path d="M 184.158039 312.655388 
L 185.639497 316.875019 
L 181.374918 315.528407 
" style="fill: none; stroke: #000000; stroke-width: 0.8; stroke-linecap: round"/>
   </g>
   <g id="patch_42">
    <path d="M 77.314625 212.385693 
Q 131.918867 285.625833 185.988496 358.148904 
" style="fill: none; stroke: #000000; stroke-width: 0.8; stroke-linecap: round"/>
    <path d="M 185.201055 353.746639 
L 185.988496 358.148904 
L 181.99422 356.137498 
" style="fill: none; stroke: #000000; stroke-width: 0.8; stroke-linecap: round"/>
   </g>
   <g id="patch_43">
    <path d="M 222.503482 69.408 
Q 278.395944 69.408 333.673488 69.408 
" style="fill: none; stroke: #000000; stroke-width: 0.55; stroke-linecap: round"/>
    <path d="M 329.673488 67.408 
L 333.673488 69.408 
L 329.673488 71.408 
" style="fill: none; stroke: #000000; stroke-width: 0.55; stroke-linecap: round"/>
   </g>
   <g id="patch_44">
    <path d="M 221.862156 70.875507 
Q 278.393529 131.779108 334.506567 192.23202 
" style="fill: none; stroke: #000000; stroke-width: 0.55; stroke-linecap: round"/>
    <path d="M 333.251181 187.939701 
L 334.506567 192.23202 
L 330.31948 190.660937 
" style="fill: none; stroke: #000000; stroke-width: 0.55; stroke-linecap: round"/>
   </g>
   <g id="patch_45">
    <path d="M 222.503482 110.988 
Q 278.395944 110.988 333.673488 110.988 
" style="fill: none; stroke: #000000; stroke-width: 0.55; stroke-linecap: round"/>
    <path d="M 329.673488 108.988 
L 333.673488 110.988 
L 329.673488 112.988 
" style="fill: none; stroke: #000000; stroke-width: 0.55; stroke-linecap: round"/>
   </g>
   <g id="patch_46">
    <path d="M 221.862156 112.455507 
Q 278.393529 173.359108 334.506567 233.81202 
" style="fill: none; stroke: #000000; stroke-width: 0.55; stroke-linecap: round"/>
    <path d="M 333.251181 229.519701 
L 334.506567 233.81202 
L 330.31948 232.240937 
" style="fill: none; stroke: #000000; stroke-width: 0.55; stroke-linecap: round"/>
   </g>
   <g id="patch_47">
    <path d="M 222.503482 152.568 
Q 278.395944 152.568 333.673488 152.568 
" style="fill: none; stroke: #000000; stroke-width: 0.55; stroke-linecap: round"/>
    <path d="M 329.673488 150.568 
L 333.673488 152.568 
L 329.673488 154.568 
" style="fill: none; stroke: #000000; stroke-width: 0.55; stroke-linecap: round"/>
   </g>
   <g id="patch_48">
    <path d="M 221.862156 154.035507 
Q 278.393529 214.939108 334.506567 275.39202 
" style="fill: none; stroke: #000000; stroke-width: 0.55; stroke-linecap: round"/>
    <path d="M 333.251181 271.099701 
L 334.506567 275.39202 
L 330.31948 273.820937 
" style="fill: none; stroke: #000000; stroke-width: 0.55; stroke-linecap: round"/>
   </g>
   <g id="patch_49">
    <path d="M 222.503482 194.148 
Q 278.395944 194.148 333.673488 194.148 
" style="fill: none; stroke: #000000; stroke-width: 0.55; stroke-linecap: round"/>
    <path d="M 329.673488 192.148 
L 333.673488 194.148 
L 329.673488 196.148 
" style="fill: none; stroke: #000000; stroke-width: 0.55; stroke-linecap: round"/>
   </g>
   <g id="patch_50">
    <path d="M 221.862156 195.615507 
Q 278.393529 256.519108 334.506567 316.97202 
" style="fill: none; stroke: #000000; stroke-width: 0.55; stroke-linecap: round"/>
    <path d="M 333.251181 312.679701 
L 334.506567 316.97202 
L 330.31948 315.400937 
" style="fill: none; stroke: #000000; stroke-width: 0.55; stroke-linecap: round"/>
   </g>
   <g id="patch_51">
    <path d="M 222.503482 235.728 
Q 278.395944 235.728 333.673488 235.728 
" style="fill: none; stroke: #000000; stroke-width: 0.55; stroke-linecap: round"/>
    <path d="M 329.673488 233.728 
L 333.673488 235.728 
L 329.673488 237.728 
" style="fill: none; stroke: #000000; stroke-width: 0.55; stroke-linecap: round"/>
   </g>
   <g id="patch_52">
    <path d="M 221.862156 237.195507 
Q 278.393529 298.099108 334.506567 358.55202 
" style="fill: none; stroke: #000000; stroke-width: 0.55; stroke-linecap: round"/>
    <path d="M 333.251181 354.259701 
L 334.506567 358.55202 
L 330.31948 356.980937 
" style="fill: none; stroke: #000000; stroke-width: 0.55; stroke-linecap: round"/>
   </g>
   <g id="patch_53">
    <path d="M 221.64308 275.666016 
Q 278.392895 194.147433 334.791379 113.13352 
" style="fill: none; stroke: #000000; stroke-width: 0.55; stroke-linecap: round"/>
    <path d="M 330.864581 115.273674 
L 334.791379 113.13352 
L 334.147423 117.559051 
" style="fill: none; stroke: #000000; stroke-width: 0.55; stroke-linecap: round"/>
   </g>
   <g id="patch_54">
    <path d="M 222.503482 277.308 
Q 278.395944 277.308 333.673488 277.308 
" style="fill: none; stroke: #000000; stroke-width: 0.55; stroke-linecap: round"/>
    <path d="M 329.673488 275.308 
L 333.673488 277.308 
L 329.673488 279.308 
" style="fill: none; stroke: #000000; stroke-width: 0.55; stroke-linecap: round"/>
   </g>
   <g id="patch_55">
    <path d="M 221.64308 317.246016 
Q 278.392895 235.727433 334.791379 154.71352 
" style="fill: none; stroke: #000000; stroke-width: 0.55; stroke-linecap: round"/>
    <path d="M 330.864581 156.853674 
L 334.791379 154.71352 
L 334.147423 159.139051 
" style="fill: none; stroke: #000000; stroke-width: 0.55; stroke-linecap: round"/>
   </g>
   <g id="patch_56">
    <path d="M 222.503482 318.888 
Q 278.395944 318.888 333.673488 318.888 
" style="fill: none; stroke: #000000; stroke-width: 0.55; stroke-linecap: round"/>
    <path d="M 329.673488 316.888 
L 333.673488 318.888 
L 329.673488 320.888 
" style="fill: none; stroke: #000000; stroke-width: 0.55; stroke-linecap: round"/>
   </g>
   <g id="patch_57">
    <path d="M 221.64308 358.826016 
Q 278.392895 277.307433 334.791379 196.29352 
" style="fill: none; stroke: #000000; stroke-width: 0.55; stroke-linecap: round"/>
    <path d="M 330.864581 198.433674 
L 334.791379 196.29352 
L 334.147423 200.719051 
" style="fill: none; stroke: #000000; stroke-width: 0.55; stroke-linecap: round"/>
   </g>
   <g id="patch_58">
    <path d="M 222.503482 360.468 
Q 278.395944 360.468 333.673488 360.468 
" style="fill: none; stroke: #000000; stroke-width: 0.55; stroke-linecap: round"/>
    <path d="M 329.673488 358.468 
L 333.673488 360.468 
L 329.673488 362.468 
" style="fill: none; stroke: #000000; stroke-width: 0.55; stroke-linecap: round"/>
   </g>
   <g id="patch_59">
    <path d="M 368.978482 69.408 
Q 424.870944 69.408 480.148488 69.408 
" style="fill: none; stroke: #000000; stroke-width: 0.55; stroke-linecap: round"/>
    <path d="M 476.148488 67.408 
L 480.148488 69.408 
L 476.148488 71.408 
" style="fill: none; stroke: #000000; stroke-width: 0.55; stroke-linecap: round"/>
   </g>
   <g id="patch_60">
    <path d="M 368.337156 70.875507 
Q 424.868529 131.779108 480.981567 192.23202 
" style="fill: none; stroke: #000000; stroke-width: 0.55; stroke-linecap: round"/>
    <path d="M 479.726181 187.939701 
L 480.981567 192.23202 
L 476.79448 190.660937 
" style="fill: none; stroke: #000000; stroke-width: 0.55; stroke-linecap: round"/>
   </g>
   <g id="patch_61">
    <path d="M 368.978482 110.988 
Q 424.870944 110.988 480.148488 110.988 
" style="fill: none; stroke: #000000; stroke-width: 0.55; stroke-linecap: round"/>
    <path d="M 476.148488 108.988 
L 480.148488 110.988 
L 476.148488 112.988 
" style="fill: none; stroke: #000000; stroke-width: 0.55; stroke-linecap: round"/>
   </g>
   <g id="patch_62">
    <path d="M 368.337156 112.455507 
Q 424.868529 173.359108 480.981567 233.81202 
" style="fill: none; stroke: #000000; stroke-width: 0.55; stroke-linecap: round"/>
    <path d="M 479.726181 229.519701 
L 480.981567 233.81202 
L 476.79448 232.240937 
" style="fill: none; stroke: #000000; stroke-width: 0.55; stroke-linecap: round"/>
   </g>
   <g id="patch_63">
    <path d="M 368.978482 152.568 
Q 424.870944 152.568 480.148488 152.568 
" style="fill: none; stroke: #000000; stroke-width: 0.55; stroke-linecap: round"/>
    <path d="M 476.148488 150.568 
L 480.148488 152.568 
L 476.148488 154.568 
" style="fill: none; stroke: #000000; stroke-width: 0.55; stroke-linecap: round"/>
   </g>
   <g id="patch_64">
    <path d="M 368.337156 154.035507 
Q 424.868529 214.939108 480.981567 275.39202 
" style="fill: none; stroke: #000000; stroke-width: 0.55; stroke-linecap: round"/>
    <path d="M 479.726181 271.099701 
L 480.981567 275.39202 
L 476.79448 273.820937 
" style="fill: none; stroke: #000000; stroke-width: 0.55; stroke-linecap: round"/>
   </g>
   <g id="patch_65">
    <path d="M 368.978482 194.148 
Q 424.870944 194.148 480.148488 194.148 
" style="fill: none; stroke: #000000; stroke-width: 0.55; stroke-linecap: round"/>
    <path d="M 476.148488 192.148 
L 480.148488 194.148 
L 476.148488 196.148 
" style="fill: none; stroke: #000000; stroke-width: 0.55; stroke-linecap: round"/>
   </g>
   <g id="patch_66">
    <path d="M 368.337156 195.615507 
Q 424.868529 256.519108 480.981567 316.97202 
" style="fill: none; stroke: #000000; stroke-width: 0.55; stroke-linecap: round"/>
    <path d="M 479.726181 312.679701 
L 480.981567 316.97202 
L 476.79448 315.400937 
" style="fill: none; stroke: #000000; stroke-width: 0.55; stroke-linecap: round"/>
   </g>
   <g id="patch_67">
    <path d="M 368.978482 235.728 
Q 424.870944 235.728 480.148488 235.728 
" style="fill: none; stroke: #000000; stroke-width: 0.55; stroke-linecap: round"/>
    <path d="M 476.148488 233.728 
L 480.148488 235.728 
L 476.148488 237.728 
" style="fill: none; stroke: #000000; stroke-width: 0.55; stroke-linecap: round"/>
   </g>
   <g id="patch_68">
    <path d="M 368.337156 237.195507 
Q 424.868529 298.099108 480.981567 358.55202 
" style="fill: none; stroke: #000000; stroke-width: 0.55; stroke-linecap: round"/>
    <path d="M 479.726181 354.259701 
L 480.981567 358.55202 
L 476.79448 356.980937 
" style="fill: none; stroke: #000000; stroke-width: 0.55; stroke-linecap: round"/>
   </g>
   <g id="patch_69">
    <path d="M 368.11808 275.666016 
Q 424.867895 194.147433 481.266379 113.13352 
" style="fill: none; stroke: #000000; stroke-width: 0.55; stroke-linecap: round"/>
    <path d="M 477.339581 115.273674 
L 481.266379 113.13352 
L 480.622423 117.559051 
" style="fill: none; stroke: #000000; stroke-width: 0.55; stroke-linecap: round"/>
   </g>
   <g id="patch_70">
    <path d="M 368.978482 277.308 
Q 424.870944 277.308 480.148488 277.308 
" style="fill: none; stroke: #000000; stroke-width: 0.55; stroke-linecap: round"/>
    <path d="M 476.148488 275.308 
L 480.148488 277.308 
L 476.148488 279.308 
" style="fill: none; stroke: #000000; stroke-width: 0.55; stroke-linecap: round"/>
   </g>
   <g id="patch_71">
    <path d="M 368.11808 317.246016 
Q 424.867895 235.727433 481.266379 154.71352 
" style="fill: none; stroke: #000000; stroke-width: 0.55; stroke-linecap: round"/>
    <path d="M 477.339581 156.853674 
L 481.266379 154.71352 
L 480.622423 159.139051 
" style="fill: none; stroke: #000000; stroke-width: 0.55; stroke-linecap: round"/>
   </g>
   <g id="patch_72">
    <path d="M 368.978482 318.888 
Q 424.870944 318.888 480.148488 318.888 
" style="fill: none; stroke: #000000; stroke-width: 0.55; stroke-linecap: round"/>
    <path d="M 476.148488 316.888 
L 480.148488 318.888 
L 476.148488 320.888 
" style="fill: none; stroke: #000000; stroke-width: 0.55; stroke-linecap: round"/>
   </g>
   <g id="patch_73">
    <path d="M 368.11808 358.826016 
Q 424.867895 277.307433 481.266379 196.29352 
" style="fill: none; stroke: #000000; stroke-width: 0.55; stroke-linecap: round"/>
    <path d="M 477.339581 198.433674 
L 481.266379 196.29352 
L 480.622423 200.719051 
" style="fill: none; stroke: #000000; stroke-width: 0.55; stroke-linecap: round"/>
   </g>
   <g id="patch_74">
    <path d="M 368.978482 360.468 
Q 424.870944 360.468 480.148488 360.468 
" style="fill: none; stroke: #000000; stroke-width: 0.55; stroke-linecap: round"/>
    <path d="M 476.148488 358.468 
L 480.148488 360.468 
L 476.148488 362.468 
" style="fill: none; stroke: #000000; stroke-width: 0.55; stroke-linecap: round"/>
   </g>
   <g id="patch_75">
    <path d="M 515.453482 69.408 
Q 571.345944 69.408 626.623488 69.408 
" style="fill: none; stroke: #000000; stroke-width: 0.55; stroke-linecap: round"/>
    <path d="M 622.623488 67.408 
L 626.623488 69.408 
L 622.623488 71.408 
" style="fill: none; stroke: #000000; stroke-width: 0.55; stroke-linecap: round"/>
   </g>
   <g id="patch_76">
    <path d="M 514.812156 70.875507 
Q 571.343529 131.779108 627.456567 192.23202 
" style="fill: none; stroke: #000000; stroke-width: 0.55; stroke-linecap: round"/>
    <path d="M 626.201181 187.939701 
L 627.456567 192.23202 
L 623.26948 190.660937 
" style="fill: none; stroke: #000000; stroke-width: 0.55; stroke-linecap: round"/>
   </g>
   <g id="patch_77">
    <path d="M 515.453482 110.988 
Q 571.345944 110.988 626.623488 110.988 
" style="fill: none; stroke: #000000; stroke-width: 0.55; stroke-linecap: round"/>
    <path d="M 622.623488 108.988 
L 626.623488 110.988 
L 622.623488 112.988 
" style="fill: none; stroke: #000000; stroke-width: 0.55; stroke-linecap: round"/>
   </g>
   <g id="patch_78">
    <path d="M 514.812156 112.455507 
Q 571.343529 173.359108 627.456567 233.81202 
" style="fill: none; stroke: #000000; stroke-width: 0.55; stroke-linecap: round"/>
    <path d="M 626.201181 229.519701 
L 627.456567 233.81202 
L 623.26948 232.240937 
" style="fill: none; stroke: #000000; stroke-width: 0.55; stroke-linecap: round"/>
   </g>
   <g id="patch_79">
    <path d="M 515.453482 152.568 
Q 571.345944 152.568 626.623488 152.568 
" style="fill: none; stroke: #000000; stroke-width: 0.55; stroke-linecap: round"/>
    <path d="M 622.623488 150.568 
L 626.623488 152.568 
L 622.623488 154.568 
" style="fill: none; stroke: #000000; stroke-width: 0.55; stroke-linecap: round"/>
   </g>
   <g id="patch_80">
    <path d="M 514.812156 154.035507 
Q 571.343529 214.939108 627.456567 275.39202 
" style="fill: none; stroke: #000000; stroke-width: 0.55; stroke-linecap: round"/>
    <path d="M 626.201181 271.099701 
L 627.456567 275.39202 
L 623.26948 273.820937 
" style="fill: none; stroke: #000000; stroke-width: 0.55; stroke-linecap: round"/>
   </g>
   <g id="patch_81">
    <path d="M 515.453482 194.148 
Q 571.345944 194.148 626.623488 194.148 
" style="fill: none; stroke: #000000; stroke-width: 0.55; stroke-linecap: round"/>
    <path d="M 622.623488 192.148 
L 626.623488 194.148 
L 622.623488 196.148 
" style="fill: none; stroke: #000000; stroke-width: 0.55; stroke-linecap: round"/>
   </g>
   <g id="patch_82">
    <path d="M 514.812156 195.615507 
Q 571.343529 256.519108 627.456567 316.97202 
" style="fill: none; stroke: #000000; stroke-width: 0.55; stroke-linecap: round"/>
    <path d="M 626.201181 312.679701 
L 627.456567 316.97202 
L 623.26948 315.400937 
" style="fill: none; stroke: #000000; stroke-width: 0.55; stroke-linecap: round"/>
   </g>
   <g id="patch_83">
    <path d="M 515.453482 235.728 
Q 571.345944 235.728 626.623488 235.728 
" style="fill: none; stroke: #000000; stroke-width: 0.55; stroke-linecap: round"/>
    <path d="M 622.623488 233.728 
L 626.623488 235.728 
L 622.623488 237.728 
" style="fill: none; stroke: #000000; stroke-width: 0.55; stroke-linecap: round"/>
   </g>
   <g id="patch_84">
    <path d="M 514.812156 237.195507 
Q 571.343529 298.099108 627.456567 358.55202 
" style="fill: none; stroke: #000000; stroke-width: 0.55; stroke-linecap: round"/>
    <path d="M 626.201181 354.259701 
L 627.456567 358.55202 
L 623.26948 356.980937 
" style="fill: none; stroke: #000000; stroke-width: 0.55; stroke-linecap: round"/>
   </g>
   <g id="patch_85">
    <path d="M 514.59308 275.666016 
Q 571.342895 194.147433 627.741379 113.13352 
" style="fill: none; stroke: #000000; stroke-width: 0.55; stroke-linecap: round"/>
    <path d="M 623.814581 115.273674 
L 627.741379 113.13352 
L 627.097423 117.559051 
" style="fill: none; stroke: #000000; stroke-width: 0.55; stroke-linecap: round"/>
   </g>
   <g id="patch_86">
    <path d="M 515.453482 277.308 
Q 571.345944 277.308 626.623488 277.308 
" style="fill: none; stroke: #000000; stroke-width: 0.55; stroke-linecap: round"/>
    <path d="M 622.623488 275.308 
L 626.623488 277.308 
L 622.623488 279.308 
" style="fill: none; stroke: #000000; stroke-width: 0.55; stroke-linecap: round"/>
   </g>
   <g id="patch_87">
    <path d="M 514.59308 317.246016 
Q 571.342895 235.727433 627.741379 154.71352 
" style="fill: none; stroke: #000000; stroke-width: 0.55; stroke-linecap: round"/>
    <path d="M 623.814581 156.853674 
L 627.741379 154.71352 
L 627.097423 159.139051 
" style="fill: none; stroke: #000000; stroke-width: 0.55; stroke-linecap: round"/>
   </g>
   <g id="patch_88">
    <path d="M 515.453482 318.888 
Q 571.345944 318.888 626.623488 318.888 
" style="fill: none; stroke: #000000; stroke-width: 0.55; stroke-linecap: round"/>
    <path d="M 622.623488 316.888 
L 626.623488 318.888 
L 622.623488 320.888 
" style="fill: none; stroke: #000000; stroke-width: 0.55; stroke-linecap: round"/>
   </g>
   <g id="patch_89">
    <path d="M 514.59308 358.826016 
Q 571.342895 277.307433 627.741379 196.29352 
" style="fill: none; stroke: #000000; stroke-width: 0.55; stroke-linecap: round"/>
    <path d="M 623.814581 198.433674 
L 627.741379 196.29352 
L 627.097423 200.719051 
" style="fill: none; stroke: #000000; stroke-width: 0.55; stroke-linecap: round"/>
   </g>
   <g id="patch_90">
    <path d="M 515.453482 360.468 
Q 571.345944 360.468 626.623488 360.468 
" style="fill: none; stroke: #000000; stroke-width: 0.55; stroke-linecap: round"/>
    <path d="M 622.623488 358.468 
L 626.623488 360.468 
L 622.623488 362.468 
" style="fill: none; stroke: #000000; stroke-width: 0.55; stroke-linecap: round"/>
   </g>
   <g id="patch_91">
    <path d="M 76.920025 209.455247 
Q 131.917249 160.884222 184.735644 114.237439 
" style="fill: none; stroke: #000000; stroke-width: 2.6; stroke-linecap: round"/>
    <path d="M 180.413566 115.386196 
L 184.735644 114.237439 
L 183.061403 118.384355 
" style="fill: none; stroke: #000000; stroke-width: 2.6; stroke-linecap: round"/>
   </g>
   <g id="patch_92">
    <path d="M 223.238126 112.470734 
Q 278.391964 173.357409 331.594251 232.089682 
" style="fill: none; stroke: #000000; stroke-width: 2.6; stroke-linecap: round"/>
    <path d="M 330.391107 227.782427 
L 331.594251 232.089682 
L 327.42656 230.467844 
" style="fill: none; stroke: #000000; stroke-width: 2.6; stroke-linecap: round"/>
   </g>
   <g id="patch_93">
    <path d="M 369.980372 234.542828 
Q 424.868778 194.14706 477.415992 155.474319 
" style="fill: none; stroke: #000000; stroke-width: 2.6; stroke-linecap: round"/>
    <path d="M 473.008936 156.234488 
L 477.415992 155.474319 
L 475.379894 159.456065 
" style="fill: none; stroke: #000000; stroke-width: 2.6; stroke-linecap: round"/>
   </g>
   <g id="patch_94">
    <path d="M 515.967433 154.220135 
Q 571.341247 235.726155 625.081503 314.827703 
" style="fill: none; stroke: #000000; stroke-width: 2.6; stroke-linecap: round"/>
    <path d="M 624.487986 310.395126 
L 625.081503 314.827703 
L 621.179331 312.64297 
" style="fill: none; stroke: #000000; stroke-width: 2.6; stroke-linecap: round"/>
   </g>
   <g id="text_39">
    <!-- $p_{i_0\,i_1^s}$ -->
    <g transform="translate(120.0225 152.099781) scale(0.13 -0.13)">
     <defs>
      <path id="DejaVuSans-Oblique-70" d="M 3175 2156 
Q 3175 2616 2975 2859 
Q 2775 3103 2400 3103 
Q 2144 3103 1911 2972 
Q 1678 2841 1497 2591 
Q 1319 2344 1212 1994 
Q 1106 1644 1106 1300 
Q 1106 863 1306 627 
Q 1506 391 1875 391 
Q 2147 391 2380 519 
Q 2613 647 2778 891 
Q 2956 1147 3065 1494 
Q 3175 1841 3175 2156 
z
M 1394 2969 
Q 1625 3272 1939 3428 
Q 2253 3584 2638 3584 
Q 3175 3584 3472 3232 
Q 3769 2881 3769 2247 
Q 3769 1728 3584 1258 
Q 3400 788 3053 416 
Q 2822 169 2531 39 
Q 2241 -91 1919 -91 
Q 1547 -91 1294 64 
Q 1041 219 916 525 
L 556 -1331 
L -19 -1331 
L 922 3500 
L 1497 3500 
L 1394 2969 
z
" transform="scale(0.015625)"/>
      <path id="DejaVuSans-Oblique-73" d="M 3200 3397 
L 3091 2853 
Q 2863 2978 2609 3040 
Q 2356 3103 2088 3103 
Q 1634 3103 1373 2948 
Q 1113 2794 1113 2528 
Q 1113 2219 1719 2053 
Q 1766 2041 1788 2034 
L 1972 1978 
Q 2547 1819 2739 1644 
Q 2931 1469 2931 1166 
Q 2931 609 2489 259 
Q 2047 -91 1331 -91 
Q 1053 -91 747 -37 
Q 441 16 72 128 
L 184 722 
Q 500 559 806 475 
Q 1113 391 1394 391 
Q 1816 391 2080 572 
Q 2344 753 2344 1031 
Q 2344 1331 1650 1516 
L 1591 1531 
L 1394 1581 
Q 956 1697 753 1886 
Q 550 2075 550 2369 
Q 550 2928 970 3256 
Q 1391 3584 2113 3584 
Q 2397 3584 2667 3537 
Q 2938 3491 3200 3397 
z
" transform="scale(0.015625)"/>
     </defs>
     <use xlink:href="#DejaVuSans-Oblique-70"/>
     <use xlink:href="#DejaVuSans-Oblique-69" transform="translate(63.476562 -16.40625) scale(0.7)"/>
     <use xlink:href="#DejaVuSans-30" transform="translate(82.924805 -27.890625) scale(0.49)"/>
     <use xlink:href="#DejaVuSans-Oblique-69" transform="translate(127.379134 -16.40625) scale(0.7)"/>
     <use xlink:href="#DejaVuSans-Oblique-73" transform="translate(152.040772 10.390625) scale(0.49)"/>
     <use xlink:href="#DejaVuSans-31" transform="translate(146.827376 -35.546875) scale(0.49)"/>
    </g>
   </g>
   <g id="text_40">
    <!-- $p_{i_1^s\,i_2^s}$ -->
    <g transform="translate(266.4975 164.573781) scale(0.13 -0.13)">
     <use xlink:href="#DejaVuSans-Oblique-70"/>
     <use xlink:href="#DejaVuSans-Oblique-69" transform="translate(63.476562 -16.40625) scale(0.7)"/>
     <use xlink:href="#DejaVuSans-Oblique-73" transform="translate(88.138201 10.390625) scale(0.49)"/>
     <use xlink:href="#DejaVuSans-31" transform="translate(82.924805 -35.546875) scale(0.49)"/>
     <use xlink:href="#DejaVuSans-Oblique-69" transform="translate(127.379134 -16.40625) scale(0.7)"/>
     <use xlink:href="#DejaVuSans-Oblique-73" transform="translate(152.040772 10.390625) scale(0.49)"/>
     <use xlink:href="#DejaVuSans-32" transform="translate(146.827376 -35.546875) scale(0.49)"/>
    </g>
   </g>
   <g id="text_41">
    <!-- $p_{i_2^s\,i_3^s}$ -->
    <g transform="translate(412.9725 185.233781) scale(0.13 -0.13)">
     <use xlink:href="#DejaVuSans-Oblique-70"/>
     <use xlink:href="#DejaVuSans-Oblique-69" transform="translate(63.476562 -16.40625) scale(0.7)"/>
     <use xlink:href="#DejaVuSans-Oblique-73" transform="translate(88.138201 10.390625) scale(0.49)"/>
     <use xlink:href="#DejaVuSans-32" transform="translate(82.924805 -35.546875) scale(0.49)"/>
     <use xlink:href="#DejaVuSans-Oblique-69" transform="translate(127.379134 -16.40625) scale(0.7)"/>
     <use xlink:href="#DejaVuSans-Oblique-73" transform="translate(152.040772 10.390625) scale(0.49)"/>
     <use xlink:href="#DejaVuSans-33" transform="translate(146.827376 -35.546875) scale(0.49)"/>
    </g>
   </g>
   <g id="text_42">
    <!-- $p_{i_3^s\,i_4^s}$ -->
    <g transform="translate(559.4475 226.813781) scale(0.13 -0.13)">
     <use xlink:href="#DejaVuSans-Oblique-70"/>
     <use xlink:href="#DejaVuSans-Oblique-69" transform="translate(63.476562 -16.40625) scale(0.7)"/>
     <use xlink:href="#DejaVuSans-Oblique-73" transform="translate(88.138201 10.390625) scale(0.49)"/>
     <use xlink:href="#DejaVuSans-33" transform="translate(82.924805 -35.546875) scale(0.49)"/>
     <use xlink:href="#DejaVuSans-Oblique-69" transform="translate(127.379134 -16.40625) scale(0.7)"/>
     <use xlink:href="#DejaVuSans-Oblique-73" transform="translate(152.040772 10.390625) scale(0.49)"/>
     <use xlink:href="#DejaVuSans-34" transform="translate(146.827376 -35.546875) scale(0.49)"/>
    </g>
   </g>
   <g id="text_43">
    <!-- $\xi_s=(Z_1^s,Z_2^s,Z_3^s,Z_4^s)$$\qquad$$p_s=p_{i_0i_1^s}p_{i_1^si_2^s}p_{i_2^si_3^s}p_{i_3^si_4^s}$ -->
    <g transform="translate(200.205 398.886) scale(0.15 -0.15)">
     <defs>
      <path id="DejaVuSans-Oblique-3be" d="M 2016 397 
Q 2428 394 2628 159 
Q 2844 -88 2772 -463 
Q 2700 -822 2422 -1072 
Q 2119 -1344 1609 -1344 
Q 1656 -1109 1700 -872 
Q 1913 -888 2072 -750 
Q 2194 -641 2216 -525 
Q 2247 -359 2175 -222 
Q 2100 -91 1922 -91 
Q -25 -91 241 1275 
Q 422 2213 1516 2488 
Q 663 2600 822 3413 
Q 941 4028 1678 4284 
L 1028 4284 
L 1141 4863 
L 3606 4863 
L 3494 4284 
Q 1528 4284 1350 3375 
Q 1234 2778 2881 2750 
L 2778 2219 
Q 1009 2288 819 1275 
Q 659 428 2016 397 
z
" transform="scale(0.015625)"/>
      <path id="DejaVuSans-28" d="M 1984 4856 
Q 1566 4138 1362 3434 
Q 1159 2731 1159 2009 
Q 1159 1288 1364 580 
Q 1569 -128 1984 -844 
L 1484 -844 
Q 1016 -109 783 600 
Q 550 1309 550 2009 
Q 550 2706 781 3412 
Q 1013 4119 1484 4856 
L 1984 4856 
z
" transform="scale(0.015625)"/>
      <path id="DejaVuSans-Oblique-5a" d="M 838 4666 
L 4500 4666 
L 4409 4184 
L 794 531 
L 3769 531 
L 3669 0 
L -141 0 
L -50 481 
L 3566 4134 
L 738 4134 
L 838 4666 
z
" transform="scale(0.015625)"/>
      <path id="DejaVuSans-2c" d="M 750 794 
L 1409 794 
L 1409 256 
L 897 -744 
L 494 -744 
L 750 256 
L 750 794 
z
" transform="scale(0.015625)"/>
      <path id="DejaVuSans-29" d="M 513 4856 
L 1013 4856 
Q 1481 4119 1714 3412 
Q 1947 2706 1947 2009 
Q 1947 1309 1714 600 
Q 1481 -109 1013 -844 
L 513 -844 
Q 928 -128 1133 580 
Q 1338 1288 1338 2009 
Q 1338 2731 1133 3434 
Q 928 4138 513 4856 
z
" transform="scale(0.015625)"/>
     </defs>
     <use xlink:href="#DejaVuSans-Oblique-3be" transform="translate(0 0.51875)"/>
     <use xlink:href="#DejaVuSans-Oblique-73" transform="translate(55.761719 -15.8875) scale(0.7)"/>
     <use xlink:href="#DejaVuSans-3d" transform="translate(114.448242 0.51875)"/>
     <use xlink:href="#DejaVuSans-28" transform="translate(217.719727 0.51875)"/>
     <use xlink:href="#DejaVuSans-Oblique-5a" transform="translate(256.733398 0.51875)"/>
     <use xlink:href="#DejaVuSans-Oblique-73" transform="translate(332.256029 38.8) scale(0.7)"/>
     <use xlink:href="#DejaVuSans-31" transform="translate(325.239258 -26.825) scale(0.7)"/>
     <use xlink:href="#DejaVuSans-2c" transform="translate(372.509766 0.51875)"/>
     <use xlink:href="#DejaVuSans-Oblique-5a" transform="translate(423.779297 0.51875)"/>
     <use xlink:href="#DejaVuSans-Oblique-73" transform="translate(499.301927 38.8) scale(0.7)"/>
     <use xlink:href="#DejaVuSans-32" transform="translate(492.285156 -26.825) scale(0.7)"/>
     <use xlink:href="#DejaVuSans-2c" transform="translate(539.555664 0.51875)"/>
     <use xlink:href="#DejaVuSans-Oblique-5a" transform="translate(590.825195 0.51875)"/>
     <use xlink:href="#DejaVuSans-Oblique-73" transform="translate(666.347826 38.8) scale(0.7)"/>
     <use xlink:href="#DejaVuSans-33" transform="translate(659.331055 -26.825) scale(0.7)"/>
     <use xlink:href="#DejaVuSans-2c" transform="translate(706.601562 0.51875)"/>
     <use xlink:href="#DejaVuSans-Oblique-5a" transform="translate(757.871094 0.51875)"/>
     <use xlink:href="#DejaVuSans-Oblique-73" transform="translate(833.393724 38.8) scale(0.7)"/>
     <use xlink:href="#DejaVuSans-34" transform="translate(826.376953 -26.825) scale(0.7)"/>
     <use xlink:href="#DejaVuSans-29" transform="translate(873.647461 0.51875)"/>
     <use xlink:href="#DejaVuSans-Oblique-70" transform="translate(1107.485352 0.51875)"/>
     <use xlink:href="#DejaVuSans-Oblique-73" transform="translate(1170.961914 -15.8875) scale(0.7)"/>
     <use xlink:href="#DejaVuSans-3d" transform="translate(1229.648438 0.51875)"/>
     <use xlink:href="#DejaVuSans-Oblique-70" transform="translate(1332.919922 0.51875)"/>
     <use xlink:href="#DejaVuSans-Oblique-69" transform="translate(1396.396484 -15.8875) scale(0.7)"/>
     <use xlink:href="#DejaVuSans-30" transform="translate(1415.844727 -27.371875) scale(0.49)"/>
     <use xlink:href="#DejaVuSans-Oblique-69" transform="translate(1448.934082 -15.8875) scale(0.7)"/>
     <use xlink:href="#DejaVuSans-Oblique-73" transform="translate(1473.59572 10.909375) scale(0.49)"/>
     <use xlink:href="#DejaVuSans-31" transform="translate(1468.382324 -35.028125) scale(0.49)"/>
     <use xlink:href="#DejaVuSans-Oblique-70" transform="translate(1504.206055 0.51875)"/>
     <use xlink:href="#DejaVuSans-Oblique-69" transform="translate(1567.682617 -15.8875) scale(0.7)"/>
     <use xlink:href="#DejaVuSans-Oblique-73" transform="translate(1592.344255 10.909375) scale(0.49)"/>
     <use xlink:href="#DejaVuSans-31" transform="translate(1587.130859 -35.028125) scale(0.49)"/>
     <use xlink:href="#DejaVuSans-Oblique-69" transform="translate(1620.220215 -15.8875) scale(0.7)"/>
     <use xlink:href="#DejaVuSans-Oblique-73" transform="translate(1644.881853 10.909375) scale(0.49)"/>
     <use xlink:href="#DejaVuSans-32" transform="translate(1639.668457 -35.028125) scale(0.49)"/>
     <use xlink:href="#DejaVuSans-Oblique-70" transform="translate(1675.492188 0.51875)"/>
     <use xlink:href="#DejaVuSans-Oblique-69" transform="translate(1738.96875 -15.8875) scale(0.7)"/>
     <use xlink:href="#DejaVuSans-Oblique-73" transform="translate(1763.630388 10.909375) scale(0.49)"/>
     <use xlink:href="#DejaVuSans-32" transform="translate(1758.416992 -35.028125) scale(0.49)"/>
     <use xlink:href="#DejaVuSans-Oblique-69" transform="translate(1791.506348 -15.8875) scale(0.7)"/>
     <use xlink:href="#DejaVuSans-Oblique-73" transform="translate(1816.167986 10.909375) scale(0.49)"/>
     <use xlink:href="#DejaVuSans-33" transform="translate(1810.95459 -35.028125) scale(0.49)"/>
     <use xlink:href="#DejaVuSans-Oblique-70" transform="translate(1846.77832 0.51875)"/>
     <use xlink:href="#DejaVuSans-Oblique-69" transform="translate(1910.254883 -15.8875) scale(0.7)"/>
     <use xlink:href="#DejaVuSans-Oblique-73" transform="translate(1934.916521 10.909375) scale(0.49)"/>
     <use xlink:href="#DejaVuSans-33" transform="translate(1929.703125 -35.028125) scale(0.49)"/>
     <use xlink:href="#DejaVuSans-Oblique-69" transform="translate(1962.79248 -15.8875) scale(0.7)"/>
     <use xlink:href="#DejaVuSans-Oblique-73" transform="translate(1987.454118 10.909375) scale(0.49)"/>
     <use xlink:href="#DejaVuSans-34" transform="translate(1982.240723 -35.028125) scale(0.49)"/>
    </g>
   </g>
   <g id="text_44">
    <!-- I nodi intermedi rappresentano stati del processo, non stadi decisionali. -->
    <g transform="translate(118.488203 413.897406) scale(0.13 -0.13)">
     <defs>
      <path id="DejaVuSans-49" d="M 628 4666 
L 1259 4666 
L 1259 0 
L 628 0 
L 628 4666 
z
" transform="scale(0.015625)"/>
      <path id="DejaVuSans-20" transform="scale(0.015625)"/>
      <path id="DejaVuSans-6e" d="M 3513 2113 
L 3513 0 
L 2938 0 
L 2938 2094 
Q 2938 2591 2744 2837 
Q 2550 3084 2163 3084 
Q 1697 3084 1428 2787 
Q 1159 2491 1159 1978 
L 1159 0 
L 581 0 
L 581 3500 
L 1159 3500 
L 1159 2956 
Q 1366 3272 1645 3428 
Q 1925 3584 2291 3584 
Q 2894 3584 3203 3211 
Q 3513 2838 3513 2113 
z
" transform="scale(0.015625)"/>
      <path id="DejaVuSans-6f" d="M 1959 3097 
Q 1497 3097 1228 2736 
Q 959 2375 959 1747 
Q 959 1119 1226 758 
Q 1494 397 1959 397 
Q 2419 397 2687 759 
Q 2956 1122 2956 1747 
Q 2956 2369 2687 2733 
Q 2419 3097 1959 3097 
z
M 1959 3584 
Q 2709 3584 3137 3096 
Q 3566 2609 3566 1747 
Q 3566 888 3137 398 
Q 2709 -91 1959 -91 
Q 1206 -91 779 398 
Q 353 888 353 1747 
Q 353 2609 779 3096 
Q 1206 3584 1959 3584 
z
" transform="scale(0.015625)"/>
      <path id="DejaVuSans-64" d="M 2906 2969 
L 2906 4863 
L 3481 4863 
L 3481 0 
L 2906 0 
L 2906 525 
Q 2725 213 2448 61 
Q 2172 -91 1784 -91 
Q 1150 -91 751 415 
Q 353 922 353 1747 
Q 353 2572 751 3078 
Q 1150 3584 1784 3584 
Q 2172 3584 2448 3432 
Q 2725 3281 2906 2969 
z
M 947 1747 
Q 947 1113 1208 752 
Q 1469 391 1925 391 
Q 2381 391 2643 752 
Q 2906 1113 2906 1747 
Q 2906 2381 2643 2742 
Q 2381 3103 1925 3103 
Q 1469 3103 1208 2742 
Q 947 2381 947 1747 
z
" transform="scale(0.015625)"/>
      <path id="DejaVuSans-69" d="M 603 3500 
L 1178 3500 
L 1178 0 
L 603 0 
L 603 3500 
z
M 603 4863 
L 1178 4863 
L 1178 4134 
L 603 4134 
L 603 4863 
z
" transform="scale(0.015625)"/>
      <path id="DejaVuSans-74" d="M 1172 4494 
L 1172 3500 
L 2356 3500 
L 2356 3053 
L 1172 3053 
L 1172 1153 
Q 1172 725 1289 603 
Q 1406 481 1766 481 
L 2356 481 
L 2356 0 
L 1766 0 
Q 1100 0 847 248 
Q 594 497 594 1153 
L 594 3053 
L 172 3053 
L 172 3500 
L 594 3500 
L 594 4494 
L 1172 4494 
z
" transform="scale(0.015625)"/>
      <path id="DejaVuSans-65" d="M 3597 1894 
L 3597 1613 
L 953 1613 
Q 991 1019 1311 708 
Q 1631 397 2203 397 
Q 2534 397 2845 478 
Q 3156 559 3463 722 
L 3463 178 
Q 3153 47 2828 -22 
Q 2503 -91 2169 -91 
Q 1331 -91 842 396 
Q 353 884 353 1716 
Q 353 2575 817 3079 
Q 1281 3584 2069 3584 
Q 2775 3584 3186 3129 
Q 3597 2675 3597 1894 
z
M 3022 2063 
Q 3016 2534 2758 2815 
Q 2500 3097 2075 3097 
Q 1594 3097 1305 2825 
Q 1016 2553 972 2059 
L 3022 2063 
z
" transform="scale(0.015625)"/>
      <path id="DejaVuSans-72" d="M 2631 2963 
Q 2534 3019 2420 3045 
Q 2306 3072 2169 3072 
Q 1681 3072 1420 2755 
Q 1159 2438 1159 1844 
L 1159 0 
L 581 0 
L 581 3500 
L 1159 3500 
L 1159 2956 
Q 1341 3275 1631 3429 
Q 1922 3584 2338 3584 
Q 2397 3584 2469 3576 
Q 2541 3569 2628 3553 
L 2631 2963 
z
" transform="scale(0.015625)"/>
      <path id="DejaVuSans-6d" d="M 3328 2828 
Q 3544 3216 3844 3400 
Q 4144 3584 4550 3584 
Q 5097 3584 5394 3201 
Q 5691 2819 5691 2113 
L 5691 0 
L 5113 0 
L 5113 2094 
Q 5113 2597 4934 2840 
Q 4756 3084 4391 3084 
Q 3944 3084 3684 2787 
Q 3425 2491 3425 1978 
L 3425 0 
L 2847 0 
L 2847 2094 
Q 2847 2600 2669 2842 
Q 2491 3084 2119 3084 
Q 1678 3084 1418 2786 
Q 1159 2488 1159 1978 
L 1159 0 
L 581 0 
L 581 3500 
L 1159 3500 
L 1159 2956 
Q 1356 3278 1631 3431 
Q 1906 3584 2284 3584 
Q 2666 3584 2933 3390 
Q 3200 3197 3328 2828 
z
" transform="scale(0.015625)"/>
      <path id="DejaVuSans-61" d="M 2194 1759 
Q 1497 1759 1228 1600 
Q 959 1441 959 1056 
Q 959 750 1161 570 
Q 1363 391 1709 391 
Q 2188 391 2477 730 
Q 2766 1069 2766 1631 
L 2766 1759 
L 2194 1759 
z
M 3341 1997 
L 3341 0 
L 2766 0 
L 2766 531 
Q 2569 213 2275 61 
Q 1981 -91 1556 -91 
Q 1019 -91 701 211 
Q 384 513 384 1019 
Q 384 1609 779 1909 
Q 1175 2209 1959 2209 
L 2766 2209 
L 2766 2266 
Q 2766 2663 2505 2880 
Q 2244 3097 1772 3097 
Q 1472 3097 1187 3025 
Q 903 2953 641 2809 
L 641 3341 
Q 956 3463 1253 3523 
Q 1550 3584 1831 3584 
Q 2591 3584 2966 3190 
Q 3341 2797 3341 1997 
z
" transform="scale(0.015625)"/>
      <path id="DejaVuSans-70" d="M 1159 525 
L 1159 -1331 
L 581 -1331 
L 581 3500 
L 1159 3500 
L 1159 2969 
Q 1341 3281 1617 3432 
Q 1894 3584 2278 3584 
Q 2916 3584 3314 3078 
Q 3713 2572 3713 1747 
Q 3713 922 3314 415 
Q 2916 -91 2278 -91 
Q 1894 -91 1617 61 
Q 1341 213 1159 525 
z
M 3116 1747 
Q 3116 2381 2855 2742 
Q 2594 3103 2138 3103 
Q 1681 3103 1420 2742 
Q 1159 2381 1159 1747 
Q 1159 1113 1420 752 
Q 1681 391 2138 391 
Q 2594 391 2855 752 
Q 3116 1113 3116 1747 
z
" transform="scale(0.015625)"/>
      <path id="DejaVuSans-73" d="M 2834 3397 
L 2834 2853 
Q 2591 2978 2328 3040 
Q 2066 3103 1784 3103 
Q 1356 3103 1142 2972 
Q 928 2841 928 2578 
Q 928 2378 1081 2264 
Q 1234 2150 1697 2047 
L 1894 2003 
Q 2506 1872 2764 1633 
Q 3022 1394 3022 966 
Q 3022 478 2636 193 
Q 2250 -91 1575 -91 
Q 1294 -91 989 -36 
Q 684 19 347 128 
L 347 722 
Q 666 556 975 473 
Q 1284 391 1588 391 
Q 1994 391 2212 530 
Q 2431 669 2431 922 
Q 2431 1156 2273 1281 
Q 2116 1406 1581 1522 
L 1381 1569 
Q 847 1681 609 1914 
Q 372 2147 372 2553 
Q 372 3047 722 3315 
Q 1072 3584 1716 3584 
Q 2034 3584 2315 3537 
Q 2597 3491 2834 3397 
z
" transform="scale(0.015625)"/>
      <path id="DejaVuSans-6c" d="M 603 4863 
L 1178 4863 
L 1178 0 
L 603 0 
L 603 4863 
z
" transform="scale(0.015625)"/>
      <path id="DejaVuSans-63" d="M 3122 3366 
L 3122 2828 
Q 2878 2963 2633 3030 
Q 2388 3097 2138 3097 
Q 1578 3097 1268 2742 
Q 959 2388 959 1747 
Q 959 1106 1268 751 
Q 1578 397 2138 397 
Q 2388 397 2633 464 
Q 2878 531 3122 666 
L 3122 134 
Q 2881 22 2623 -34 
Q 2366 -91 2075 -91 
Q 1284 -91 818 406 
Q 353 903 353 1747 
Q 353 2603 823 3093 
Q 1294 3584 2113 3584 
Q 2378 3584 2631 3529 
Q 2884 3475 3122 3366 
z
" transform="scale(0.015625)"/>
      <path id="DejaVuSans-2e" d="M 684 794 
L 1344 794 
L 1344 0 
L 684 0 
L 684 794 
z
" transform="scale(0.015625)"/>
     </defs>
     <use xlink:href="#DejaVuSans-49"/>
     <use xlink:href="#DejaVuSans-20" transform="translate(29.492188 0)"/>
     <use xlink:href="#DejaVuSans-6e" transform="translate(61.279297 0)"/>
     <use xlink:href="#DejaVuSans-6f" transform="translate(124.658203 0)"/>
     <use xlink:href="#DejaVuSans-64" transform="translate(185.839844 0)"/>
     <use xlink:href="#DejaVuSans-69" transform="translate(249.316406 0)"/>
     <use xlink:href="#DejaVuSans-20" transform="translate(277.099609 0)"/>
     <use xlink:href="#DejaVuSans-69" transform="translate(308.886719 0)"/>
     <use xlink:href="#DejaVuSans-6e" transform="translate(336.669922 0)"/>
     <use xlink:href="#DejaVuSans-74" transform="translate(400.048828 0)"/>
     <use xlink:href="#DejaVuSans-65" transform="translate(439.257812 0)"/>
     <use xlink:href="#DejaVuSans-72" transform="translate(500.78125 0)"/>
     <use xlink:href="#DejaVuSans-6d" transform="translate(540.144531 0)"/>
     <use xlink:href="#DejaVuSans-65" transform="translate(637.556641 0)"/>
     <use xlink:href="#DejaVuSans-64" transform="translate(699.080078 0)"/>
     <use xlink:href="#DejaVuSans-69" transform="translate(762.556641 0)"/>
     <use xlink:href="#DejaVuSans-20" transform="translate(790.339844 0)"/>
     <use xlink:href="#DejaVuSans-72" transform="translate(822.126953 0)"/>
     <use xlink:href="#DejaVuSans-61" transform="translate(863.240234 0)"/>
     <use xlink:href="#DejaVuSans-70" transform="translate(924.519531 0)"/>
     <use xlink:href="#DejaVuSans-70" transform="translate(987.996094 0)"/>
     <use xlink:href="#DejaVuSans-72" transform="translate(1051.472656 0)"/>
     <use xlink:href="#DejaVuSans-65" transform="translate(1090.335938 0)"/>
     <use xlink:href="#DejaVuSans-73" transform="translate(1151.859375 0)"/>
     <use xlink:href="#DejaVuSans-65" transform="translate(1203.958984 0)"/>
     <use xlink:href="#DejaVuSans-6e" transform="translate(1265.482422 0)"/>
     <use xlink:href="#DejaVuSans-74" transform="translate(1328.861328 0)"/>
     <use xlink:href="#DejaVuSans-61" transform="translate(1368.070312 0)"/>
     <use xlink:href="#DejaVuSans-6e" transform="translate(1429.349609 0)"/>
     <use xlink:href="#DejaVuSans-6f" transform="translate(1492.728516 0)"/>
     <use xlink:href="#DejaVuSans-20" transform="translate(1553.910156 0)"/>
     <use xlink:href="#DejaVuSans-73" transform="translate(1585.697266 0)"/>
     <use xlink:href="#DejaVuSans-74" transform="translate(1637.796875 0)"/>
     <use xlink:href="#DejaVuSans-61" transform="translate(1677.005859 0)"/>
     <use xlink:href="#DejaVuSans-74" transform="translate(1738.285156 0)"/>
     <use xlink:href="#DejaVuSans-69" transform="translate(1777.494141 0)"/>
     <use xlink:href="#DejaVuSans-20" transform="translate(1805.277344 0)"/>
     <use xlink:href="#DejaVuSans-64" transform="translate(1837.064453 0)"/>
     <use xlink:href="#DejaVuSans-65" transform="translate(1900.541016 0)"/>
     <use xlink:href="#DejaVuSans-6c" transform="translate(1962.064453 0)"/>
     <use xlink:href="#DejaVuSans-20" transform="translate(1989.847656 0)"/>
     <use xlink:href="#DejaVuSans-70" transform="translate(2021.634766 0)"/>
     <use xlink:href="#DejaVuSans-72" transform="translate(2085.111328 0)"/>
     <use xlink:href="#DejaVuSans-6f" transform="translate(2123.974609 0)"/>
     <use xlink:href="#DejaVuSans-63" transform="translate(2185.15625 0)"/>
     <use xlink:href="#DejaVuSans-65" transform="translate(2240.136719 0)"/>
     <use xlink:href="#DejaVuSans-73" transform="translate(2301.660156 0)"/>
     <use xlink:href="#DejaVuSans-73" transform="translate(2353.759766 0)"/>
     <use xlink:href="#DejaVuSans-6f" transform="translate(2405.859375 0)"/>
     <use xlink:href="#DejaVuSans-2c" transform="translate(2467.041016 0)"/>
     <use xlink:href="#DejaVuSans-20" transform="translate(2498.828125 0)"/>
     <use xlink:href="#DejaVuSans-6e" transform="translate(2530.615234 0)"/>
     <use xlink:href="#DejaVuSans-6f" transform="translate(2593.994141 0)"/>
     <use xlink:href="#DejaVuSans-6e" transform="translate(2655.175781 0)"/>
     <use xlink:href="#DejaVuSans-20" transform="translate(2718.554688 0)"/>
     <use xlink:href="#DejaVuSans-73" transform="translate(2750.341797 0)"/>
     <use xlink:href="#DejaVuSans-74" transform="translate(2802.441406 0)"/>
     <use xlink:href="#DejaVuSans-61" transform="translate(2841.650391 0)"/>
     <use xlink:href="#DejaVuSans-64" transform="translate(2902.929688 0)"/>
     <use xlink:href="#DejaVuSans-69" transform="translate(2966.40625 0)"/>
     <use xlink:href="#DejaVuSans-20" transform="translate(2994.189453 0)"/>
     <use xlink:href="#DejaVuSans-64" transform="translate(3025.976562 0)"/>
     <use xlink:href="#DejaVuSans-65" transform="translate(3089.453125 0)"/>
     <use xlink:href="#DejaVuSans-63" transform="translate(3150.976562 0)"/>
     <use xlink:href="#DejaVuSans-69" transform="translate(3205.957031 0)"/>
     <use xlink:href="#DejaVuSans-73" transform="translate(3233.740234 0)"/>
     <use xlink:href="#DejaVuSans-69" transform="translate(3285.839844 0)"/>
     <use xlink:href="#DejaVuSans-6f" transform="translate(3313.623047 0)"/>
     <use xlink:href="#DejaVuSans-6e" transform="translate(3374.804688 0)"/>
     <use xlink:href="#DejaVuSans-61" transform="translate(3438.183594 0)"/>
     <use xlink:href="#DejaVuSans-6c" transform="translate(3499.462891 0)"/>
     <use xlink:href="#DejaVuSans-69" transform="translate(3527.246094 0)"/>
     <use xlink:href="#DejaVuSans-2e" transform="translate(3555.029297 0)"/>
    </g>
   </g>
  </g>
 </g>
 <defs>
  <clipPath id="p322f9f6f2f">
   <rect x="2.88" y="2.88" width="697.5" height="415.8"/>
  </clipPath>
 </defs>
</svg>
